<svg width="512" height="512" viewBox="0 0 512 512" fill="none" xmlns="http://www.w3.org/2000/svg">
<path d="M506 256C506 394.071 394.071 506 256 506C117.929 506 6 394.071 6 256C6 117.929 117.929 6 256 6C394.071 6 506 117.929 506 256Z" fill="url(#paint0_linear_737_63)"/>
<path fill-rule="evenodd" clip-rule="evenodd" d="M256 488C384.13 488 488 384.13 488 256C488 127.87 384.13 24 256 24C127.87 24 24 127.87 24 256C24 384.13 127.87 488 256 488ZM256 512C397.385 512 512 397.385 512 256C512 114.615 397.385 0 256 0C114.615 0 0 114.615 0 256C0 397.385 114.615 512 256 512Z" fill="white"/>
<path d="M255.899 398.027H161.91C149.581 398.027 138.868 391.396 133.815 380.668C128.762 369.94 130.581 357.652 138.464 348.68L216.08 261.884C216.08 261.884 216.08 261.494 216.08 261.299L138.464 174.503C130.379 165.53 128.56 153.242 133.815 142.515C139.07 131.787 149.783 125.156 161.91 125.156H255.899L283.994 139.589L255.899 154.608H161.708C161.708 154.608 161.506 154.998 161.506 155.193C161.506 155.193 161.506 155.193 161.506 155.388L239.122 242.184C249.026 253.302 249.026 270.076 239.122 281.194L161.506 367.99C161.506 367.99 161.506 367.99 161.506 368.185C161.506 368.185 161.506 368.77 161.708 368.77C161.708 368.77 161.708 368.77 161.91 368.77H255.899V398.222V398.027Z" fill="white"/>
<path d="M295.92 261.884C295.92 261.884 295.92 261.494 295.92 261.299L373.536 174.503C381.621 165.53 383.44 153.242 378.185 142.515C372.929 131.787 362.217 125.156 350.089 125.156H256.101L284.196 139.589L256.101 154.413H350.291C350.291 154.413 350.493 154.803 350.493 154.998C350.493 154.998 350.493 154.998 350.493 155.193L272.877 241.989C262.973 253.107 262.973 269.881 272.877 280.999L350.493 367.795C350.493 367.795 350.493 367.795 350.493 367.99C350.493 367.99 350.493 368.575 350.291 368.575C350.291 368.575 350.291 368.575 350.089 368.575H255.899L227.601 383.789L255.899 397.832H349.887C362.217 397.832 372.929 391.2 377.982 380.473C383.036 369.745 381.217 357.457 373.334 348.485L295.717 261.689L295.92 261.884Z" fill="white"/>
<defs>
<linearGradient id="paint0_linear_737_63" x1="120.583" y1="68.5" x2="412.25" y2="443.5" gradientUnits="userSpaceOnUse">
<stop offset="0.394929" stop-color="#6ADDFF"/>
<stop offset="0.878969" stop-color="#06C6FF"/>
</linearGradient>
</defs>
</svg>
