<svg width="512" height="512" viewBox="0 0 512 512" fill="none" xmlns="http://www.w3.org/2000/svg">
<circle cx="256" cy="256" r="248" fill="black" stroke="white" stroke-width="16"/>
<path d="M134.215 137.474C119.376 109.228 155.572 81.9926 178.607 104.071L238.46 161.439C256.479 178.71 283.722 182.053 305.383 169.651L358.3 139.353C384.606 124.291 412.862 155.743 395.076 180.287L364.136 222.981C352.203 239.447 350.081 261.068 358.583 279.539L399.265 367.914C411.494 394.48 380.107 419.758 356.754 402.151L282.879 346.453C265.824 333.594 242.958 331.496 223.847 341.037L134.927 385.427C107.62 399.059 81.1805 365.568 100.782 342.175L163.196 267.689C177.857 250.193 180.498 225.575 169.882 205.368L134.215 137.474Z" fill="white"/>
<path d="M206.624 210.888C201.228 200.748 214.39 190.972 222.766 198.897L244.531 219.491C251.083 225.691 260.99 226.891 268.866 222.439L288.109 211.562C297.675 206.156 307.95 217.446 301.482 226.257L290.231 241.583C285.892 247.494 285.12 255.255 288.212 261.886L303.005 293.61C307.452 303.147 296.039 312.221 287.547 305.9L260.683 285.906C254.481 281.29 246.167 280.537 239.217 283.962L206.882 299.897C196.953 304.79 187.338 292.768 194.466 284.371L217.162 257.632C222.493 251.351 223.454 242.514 219.594 235.26L206.624 210.888Z" fill="black"/>
</svg>
