<?xml version="1.0" encoding="UTF-8" standalone="no"?>
<svg
   width="48"
   height="22"
   viewBox="0 0 48 22"
   fill="none"
   version="1.1"
   id="svg4"
   sodipodi:docname="magic-jm.svg"
   inkscape:version="1.2.1 (9c6d41e410, 2022-07-14)"
   xmlns:inkscape="http://www.inkscape.org/namespaces/inkscape"
   xmlns:sodipodi="http://sodipodi.sourceforge.net/DTD/sodipodi-0.dtd"
   xmlns="http://www.w3.org/2000/svg"
   xmlns:svg="http://www.w3.org/2000/svg">
  <defs
     id="defs8" />
  <sodipodi:namedview
     id="namedview6"
     pagecolor="#505050"
     bordercolor="#ffffff"
     borderopacity="1"
     inkscape:showpageshadow="0"
     inkscape:pageopacity="0"
     inkscape:pagecheckerboard="1"
     inkscape:deskcolor="#505050"
     showgrid="false"
     inkscape:zoom="15.170655"
     inkscape:cx="32.925409"
     inkscape:cy="8.6680505"
     inkscape:window-width="1620"
     inkscape:window-height="1010"
     inkscape:window-x="3833"
     inkscape:window-y="-6"
     inkscape:window-maximized="1"
     inkscape:current-layer="svg4" />
  <path
     d="M 4.712,14.08 C 4.31733,14.08 4.03467,13.9947 3.864,13.824 3.69333,13.6427 3.608,13.3067 3.608,12.816 3.608,12.4853 3.64,12.064 3.704,11.552 3.77867,11.0293 3.896,10.3147 4.056,9.408 4.33333,7.73333 4.552,6.28267 4.712,5.056 4.808,4.288 4.856,3.648 4.856,3.136 4.856,2.656 4.68,2.416 4.328,2.416 4.05067,2.416 3.71467,2.56 3.32,2.848 2.936,3.12533 2.50933,3.57333 2.04,4.192 1.89067,4.39467 1.72533,4.496 1.544,4.496 1.39467,4.496 1.26133,4.42667 1.144,4.288 1.03733,4.13867 0.984,3.97333 0.984,3.792 0.984,3.62133 1.016,3.45067 1.08,3.28 1.15467,3.09867 1.272,2.896 1.432,2.672 1.944,1.95733 2.51467,1.408 3.144,1.024 3.77333,0.629333 4.40267,0.431999 5.032,0.431999 c 0.58667,0 1.03467,0.186667 1.344,0.560001 0.32,0.37333 0.48,0.91733 0.48,1.632 0,0.288 -0.02667,0.62933 -0.08,1.024 C 6.72267,4.032 6.67467,4.34667 6.632,4.592 6.58933,4.83733 6.55733,5.008 6.536,5.104 7.144,3.36533 7.82667,2.15467 8.584,1.472 9.34133,0.778666 10.1733,0.431999 11.08,0.431999 c 0.6933,0 1.2373,0.245334 1.632,0.736001 0.4053,0.49067 0.608,1.184 0.608,2.08 0,0.352 -0.048,0.78933 -0.144,1.312 0.5333,-1.472 1.1573,-2.528 1.872,-3.168 0.7147,-0.640001 1.536,-0.960001 2.464,-0.960001 0.7467,0 1.3173,0.24 1.712,0.720001 0.4053,0.48 0.608,1.152 0.608,2.016 0,0.46933 -0.0693,1.04 -0.208,1.712 l -0.976,4.576 c -0.1067,0.53333 -0.16,0.992 -0.16,1.376 0,0.448 0.1013,0.784 0.304,1.008 0.2133,0.224 0.5067,0.336 0.88,0.336 0.352,0 0.6933,-0.1173 1.024,-0.352 0.3413,-0.2347 0.7413,-0.624 1.2,-1.168 0.128,-0.1493 0.272,-0.224 0.432,-0.224 0.1387,0 0.2453,0.064 0.32,0.192 0.0853,0.128 0.128,0.304 0.128,0.528 0,0.416 -0.1013,0.7467 -0.304,0.992 -0.5547,0.672 -1.104,1.1627 -1.648,1.472 -0.544,0.3093 -1.1147,0.464 -1.712,0.464 -0.9067,0 -1.616,-0.2667 -2.128,-0.8 -0.512,-0.544 -0.768,-1.2693 -0.768,-2.176 0,-0.6293 0.128,-1.54133 0.384,-2.736 L 17.24,5.44 C 17.2613,5.344 17.2987,5.17333 17.352,4.928 17.4053,4.68267 17.448,4.45333 17.48,4.24 17.512,4.016 17.528,3.79733 17.528,3.584 17.528,3.21067 17.4533,2.93333 17.304,2.752 17.1653,2.56 16.9627,2.464 16.696,2.464 c -0.5013,0 -1.0293,0.32533 -1.584,0.976 -0.544,0.64 -1.0667,1.70667 -1.568,3.2 -0.4907,1.49333 -0.8907,3.4347 -1.2,5.824 -0.0747,0.64 -0.208,1.072 -0.4,1.296 -0.1813,0.2133 -0.48,0.32 -0.896,0.32 -0.3627,0 -0.6293,-0.0853 -0.8,-0.256 -0.16,-0.1707 -0.24,-0.4907 -0.24,-0.96 0,-0.4373 0.0587,-1.008 0.176,-1.712 0.1173,-0.7147 0.2667,-1.552 0.448,-2.512 0.4907,-2.58133 0.736,-4.24533 0.736,-4.992 0,-0.40533 -0.08,-0.704 -0.24,-0.896 C 10.9787,2.56 10.7493,2.464 10.44,2.464 9.91733,2.464 9.37867,2.76267 8.824,3.36 8.26933,3.94667 7.72533,4.99733 7.192,6.512 6.66933,8.016 6.232,10.0533 5.88,12.624 5.80533,13.168 5.69333,13.5467 5.544,13.76 5.40533,13.9733 5.128,14.08 4.712,14.08 Z m 18.8927,0 c -0.6613,0 -1.1893,-0.24 -1.584,-0.72 -0.3946,-0.48 -0.592,-1.1093 -0.592,-1.888 0,-0.8533 0.1974,-1.65867 0.592,-2.416 0.3947,-0.768 0.9174,-1.38133 1.568,-1.84 0.6614,-0.46933 1.36,-0.704 2.0961,-0.704 0.2346,0 0.3893,0.048 0.4639,0.144 0.0854,0.08533 0.1547,0.24533 0.2081,0.48 0.2239,-0.04267 0.4586,-0.064 0.704,-0.064 0.5226,0 0.7839,0.18667 0.7839,0.56 0,0.224 -0.0799,0.75733 -0.2399,1.6 -0.2454,1.2267 -0.368,2.08 -0.368,2.56 0,0.16 0.0373,0.288 0.112,0.384 0.0853,0.096 0.1919,0.144 0.3199,0.144 0.2027,0 0.4481,-0.128 0.736,-0.384 0.288,-0.2667 0.6774,-0.6933 1.1681,-1.28 0.128,-0.1493 0.272,-0.224 0.432,-0.224 0.1386,0 0.2453,0.064 0.3199,0.192 0.0854,0.128 0.1281,0.304 0.1281,0.528 0,0.4267 -0.1014,0.7573 -0.304,0.992 -0.4374,0.544 -0.9014,1.0027 -1.392,1.376 -0.4907,0.3733 -0.9654,0.56 -1.4241,0.56 -0.352,0 -0.6773,-0.1173 -0.9759,-0.352 -0.2881,-0.2453 -0.5067,-0.576 -0.6561,-0.992 -0.5546,0.896 -1.2533,1.344 -2.096,1.344 z m 0.576,-1.616 c 0.2347,0 0.4587,-0.1387 0.672,-0.416 0.2134,-0.2773 0.3681,-0.6453 0.4641,-1.104 L 25.9088,8 c -0.4481,0.01067 -0.8641,0.18133 -1.2481,0.512 -0.3733,0.32 -0.672,0.74667 -0.896,1.28 -0.224,0.5333 -0.336,1.0987 -0.336,1.696 0,0.3307 0.064,0.576 0.192,0.736 0.1387,0.16 0.3254,0.24 0.56,0.24 z m 13.3137,-2 c 0.1386,0 0.2453,0.0693 0.32,0.208 0.0853,0.128 0.128,0.2933 0.128,0.496 0,0.2453 -0.0374,0.4373 -0.112,0.576 -0.0747,0.1387 -0.192,0.2613 -0.352,0.368 -0.9174,0.6187 -1.5894,1.0773 -2.016,1.376 l -1.024,0.688 c -0.4054,2.208 -0.9387,3.9413 -1.6,5.2 -0.6507,1.2693 -1.4827,1.904 -2.496,1.904 -0.544,0 -0.9867,-0.1707 -1.328,-0.512 -0.3414,-0.3307 -0.512,-0.768 -0.512,-1.312 0,-0.7573 0.2986,-1.5733 0.896,-2.448 0.5973,-0.864 1.7173,-1.9307 3.36,-3.2 l 0.096,-0.624 c -0.1814,0.288 -0.4214,0.512 -0.72,0.672 -0.288,0.1493 -0.576,0.224 -0.864,0.224 -0.6614,0 -1.1894,-0.24 -1.584,-0.72 -0.3947,-0.48 -0.592,-1.1093 -0.592,-1.888 0,-0.8533 0.1973,-1.65867 0.592,-2.416 0.3946,-0.768 0.9173,-1.38133 1.568,-1.84 0.6613,-0.46933 1.36,-0.704 2.096,-0.704 0.2346,0 0.3893,0.048 0.464,0.144 0.0853,0.08533 0.1546,0.24533 0.208,0.48 0.2026,-0.04267 0.4373,-0.064 0.704,-0.064 0.2666,0 0.4533,0.04267 0.56,0.128 0.1173,0.07467 0.176,0.22933 0.176,0.464 0,0.128 -0.0054,0.22933 -0.016,0.304 -0.0427,0.33067 -0.176,1.168 -0.4,2.512 -0.0427,0.256 -0.0907,0.5387 -0.144,0.848 -0.0427,0.2987 -0.0907,0.6187 -0.144,0.96 0.8213,-0.64 1.6106,-1.2053 2.368,-1.696 0.1386,-0.0853 0.2613,-0.128 0.368,-0.128 z m -5.648,2 c 0.2453,0 0.48,-0.1493 0.704,-0.448 0.224,-0.2987 0.384,-0.7253 0.48,-1.28 L 33.5424,8 c -0.4374,0.01067 -0.8427,0.18133 -1.216,0.512 -0.3734,0.32 -0.672,0.74667 -0.896,1.28 -0.224,0.5333 -0.336,1.0987 -0.336,1.696 0,0.3307 0.064,0.576 0.192,0.736 0.1386,0.16 0.3253,0.24 0.56,0.24 z m -1.328,7.264 c 0.2666,0 0.5653,-0.32 0.896,-0.96 0.3413,-0.64 0.6666,-1.6587 0.976,-3.056 -0.8214,0.704 -1.4134,1.3387 -1.776,1.904 -0.3627,0.5653 -0.544,1.0613 -0.544,1.488 0,0.1813 0.032,0.3307 0.096,0.448 0.0746,0.1173 0.192,0.176 0.352,0.176 z m 8.5144,-14.24 c -0.448,0 -2.928068,1.1105344 -3.152068,0.9078644 C 35.656732,6.1825344 37.6888,4.67733 37.6888,4.304 37.6888,3.93067 34.290427,1.1976012 34.578427,0.95227119 34.877027,0.69627119 38.7874,2.992 39.2248,2.992 c 0.3946,0 4.816295,-2.23450847 5.061695,-2.04250847 C 44.531795,1.1414915 40.5528,3.744 40.5528,4.096 c 0,0.42667 1.697432,2.5490406 1.420132,2.8050406 C 41.695532,7.1463706 39.4914,5.488 39.0328,5.488 Z m -0.128,8.592 c -0.6934,0 -1.2,-0.2453 -1.52,-0.736 -0.3094,-0.4907 -0.464,-1.1413 -0.464,-1.952 0,-0.48 0.0586,-1.0933 0.176,-1.84 0.128,-0.75733 0.288,-1.46133 0.48,-2.112 0.096,-0.34133 0.224,-0.576 0.384,-0.704 0.16,-0.128 0.416,-0.192 0.768,-0.192 0.544,0 0.816,0.18133 0.816,0.544 0,0.26667 -0.1014,0.88533 -0.304,1.856 -0.256,1.1733 -0.384,1.968 -0.384,2.384 0,0.32 0.0426,0.5653 0.128,0.736 0.0853,0.1707 0.2293,0.256 0.432,0.256 0.192,0 0.432,-0.1333 0.72,-0.4 0.288,-0.2667 0.672,-0.688 1.152,-1.264 0.128,-0.1493 0.272,-0.224 0.432,-0.224 0.1386,0 0.2453,0.064 0.32,0.192 0.0853,0.128 0.128,0.304 0.128,0.528 0,0.4267 -0.1014,0.7573 -0.304,0.992 -1.056,1.2907 -2.0427,1.936 -2.96,1.936 z m 5.0954,0 c -1.0133,0 -1.808,-0.2933 -2.384,-0.88 -0.5653,-0.5973 -0.848,-1.3813 -0.848,-2.352 0,-0.864 0.1707,-1.62133 0.512,-2.272 0.3414,-0.65067 0.784,-1.152 1.328,-1.504 0.544,-0.352 1.1147,-0.528 1.712,-0.528 0.5867,0 1.04,0.176 1.36,0.528 0.3307,0.34133 0.496,0.784 0.496,1.328 0,0.448 -0.1013,0.82667 -0.304,1.136 -0.192,0.30933 -0.448,0.464 -0.768,0.464 -0.2026,0 -0.368,-0.048 -0.496,-0.144 -0.1173,-0.096 -0.176,-0.22933 -0.176,-0.4 0,-0.07467 0.0107,-0.16 0.032,-0.256 0.0214,-0.096 0.0374,-0.16533 0.048,-0.208 0.0534,-0.16 0.08,-0.30933 0.08,-0.448 0,-0.13867 -0.0373,-0.24533 -0.112,-0.32 -0.064,-0.07467 -0.16,-0.112 -0.288,-0.112 -0.2453,0 -0.4746,0.112 -0.688,0.336 -0.2133,0.21333 -0.384,0.50667 -0.512,0.88 -0.128,0.37333 -0.192,0.784 -0.192,1.232 0,0.608 0.1227,1.072 0.368,1.392 0.256,0.3093 0.6134,0.464 1.072,0.464 0.3627,0 0.6934,-0.1067 0.992,-0.32 0.3094,-0.2133 0.6134,-0.528 0.912,-0.944 0.128,-0.16 0.272,-0.24 0.432,-0.24 0.1387,0 0.2454,0.064 0.32,0.192 0.0854,0.128 0.128,0.304 0.128,0.528 0,0.384 -0.0906,0.7147 -0.272,0.992 -0.288,0.448 -0.6666,0.8053 -1.136,1.072 -0.4693,0.256 -1.008,0.384 -1.616,0.384 z"
     fill="#ffffff"
     id="path2"
     sodipodi:nodetypes="scscccssccscscccscscsccscscsscsccscsccscscsscsccscscsccccscsccscsccccsscsccsccsscscsccscsccsccsscccccscsscscccccscsccccscsccsccscscccccsssccccscsscccscsscscscscsscsccssscscsscscscsscscsscscscsccscscsscsccscsccs" />
</svg>
