<?xml version="1.0" encoding="UTF-8" standalone="no"?>
<svg
   width="16"
   height="16"
   viewBox="0 0 16 16"
   fill="none"
   version="1.1"
   id="svg4"
   sodipodi:docname="magic-jm-square.svg"
   inkscape:version="1.2.1 (9c6d41e410, 2022-07-14)"
   xmlns:inkscape="http://www.inkscape.org/namespaces/inkscape"
   xmlns:sodipodi="http://sodipodi.sourceforge.net/DTD/sodipodi-0.dtd"
   xmlns="http://www.w3.org/2000/svg"
   xmlns:svg="http://www.w3.org/2000/svg">
  <defs
     id="defs8" />
  <sodipodi:namedview
     id="namedview6"
     pagecolor="#505050"
     bordercolor="#ffffff"
     borderopacity="1"
     inkscape:showpageshadow="0"
     inkscape:pageopacity="0"
     inkscape:pagecheckerboard="1"
     inkscape:deskcolor="#505050"
     showgrid="false"
     inkscape:zoom="15.170655"
     inkscape:cx="32.925409"
     inkscape:cy="8.6680505"
     inkscape:window-width="1620"
     inkscape:window-height="1010"
     inkscape:window-x="3833"
     inkscape:window-y="-6"
     inkscape:window-maximized="1"
     inkscape:current-layer="svg4" />
  <path
     d="m 7.8541846,6.1471674 c -0.448,0 -2.9280677,1.1105341 -3.1520677,0.9078644 -0.224,-0.21333 1.808068,-1.7185344 1.808068,-2.0918644 0,-0.37333 -3.398373,-3.1063988 -3.110373,-3.3517288 0.2986,-0.256 4.2089727,2.0397288 4.6463727,2.0397288 0.3946,0 4.8162944,-2.2345085 5.0616944,-2.0425085 0.2453,0.192 -3.7336947,2.7945085 -3.7336947,3.1465085 0,0.42667 1.6974317,2.5490401 1.4201317,2.8050401 -0.2774,0.24533 -2.4815314,-1.4130401 -2.9401314,-1.4130401 z m -0.128,8.5920006 c -0.6934,0 -1.1999997,-0.2453 -1.5199997,-0.736 -0.3094,-0.4907 -0.464,-1.1413 -0.464,-1.952 0,-0.48 0.0586,-1.0933 0.176,-1.84 0.128,-0.7573303 0.288,-1.4613303 0.48,-2.1120005 0.096,-0.34133 0.224,-0.576 0.3839997,-0.704 0.16,-0.128 0.416,-0.192 0.768,-0.192 0.544,0 0.816,0.18133 0.816,0.544 0,0.26667 -0.1014,0.8853302 -0.304,1.8560002 -0.256,1.1733003 -0.384,1.9680003 -0.384,2.3840003 0,0.32 0.0426,0.5653 0.128,0.736 0.0853,0.1707 0.2293,0.256 0.432,0.256 0.192,0 0.432,-0.1333 0.7199997,-0.4 0.288,-0.2667 0.672,-0.688 1.1519997,-1.264 0.128,-0.1493 0.272,-0.224 0.432,-0.224 0.1386,0 0.2453,0.064 0.32,0.192 0.0853,0.128 0.128,0.304 0.128,0.528 0,0.4267 -0.1014,0.7573 -0.304,0.992 -1.0559997,1.2907 -2.0426994,1.936 -2.9599994,1.936 z"
     fill="#ffffff"
     id="path2"
     sodipodi:nodetypes="sscscscssssccssscscsscscscss" />
</svg>
