<?xml version="1.0" encoding="UTF-8" standalone="no"?>
<svg
   width="206"
   height="97"
   viewBox="0 0 206 97"
   fill="none"
   version="1.1"
   id="svg145"
   sodipodi:docname="magic-white.svg"
   inkscape:version="1.2.1 (9c6d41e410, 2022-07-14)"
   xmlns:inkscape="http://www.inkscape.org/namespaces/inkscape"
   xmlns:sodipodi="http://sodipodi.sourceforge.net/DTD/sodipodi-0.dtd"
   xmlns="http://www.w3.org/2000/svg"
   xmlns:svg="http://www.w3.org/2000/svg">
  <defs
     id="defs149" />
  <sodipodi:namedview
     id="namedview147"
     pagecolor="#505050"
     bordercolor="#ffffff"
     borderopacity="1"
     inkscape:showpageshadow="0"
     inkscape:pageopacity="0"
     inkscape:pagecheckerboard="1"
     inkscape:deskcolor="#505050"
     showgrid="false"
     inkscape:zoom="2.4329897"
     inkscape:cx="103.16525"
     inkscape:cy="48.705508"
     inkscape:window-width="1620"
     inkscape:window-height="1010"
     inkscape:window-x="3833"
     inkscape:window-y="-6"
     inkscape:window-maximized="1"
     inkscape:current-layer="svg145" />
  <path
     d="M191.473 64.3576C186.913 64.3576 183.337 63.0376 180.745 60.3976C178.201 57.7096 176.929 54.1816 176.929 49.8136C176.929 45.9256 177.697 42.5176 179.233 39.5896C180.769 36.6616 182.761 34.4056 185.209 32.8216C187.657 31.2376 190.225 30.4456 192.913 30.4456C195.553 30.4456 197.593 31.2376 199.033 32.8216C200.521 34.3576 201.265 36.3496 201.265 38.7976C201.265 40.8136 200.809 42.5176 199.897 43.9096C199.033 45.3016 197.881 45.9976 196.441 45.9976C195.529 45.9976 194.785 45.7816 194.209 45.3496C193.681 44.9176 193.417 44.3176 193.417 43.5496C193.417 43.2136 193.465 42.8296 193.561 42.3976C193.657 41.9656 193.729 41.6536 193.777 41.4616C194.017 40.7416 194.137 40.0696 194.137 39.4456C194.137 38.8216 193.969 38.3416 193.633 38.0056C193.345 37.6696 192.913 37.5016 192.337 37.5016C191.233 37.5016 190.201 38.0056 189.241 39.0136C188.281 39.9736 187.513 41.2936 186.937 42.9736C186.361 44.6536 186.073 46.5016 186.073 48.5176C186.073 51.2536 186.625 53.3416 187.729 54.7816C188.881 56.1736 190.489 56.8696 192.553 56.8696C194.185 56.8696 195.673 56.3896 197.017 55.4296C198.409 54.4696 199.777 53.0536 201.121 51.1816C201.697 50.4616 202.345 50.1016 203.065 50.1016C203.689 50.1016 204.169 50.3896 204.505 50.9656C204.889 51.5416 205.081 52.3336 205.081 53.3416C205.081 55.0696 204.673 56.5576 203.857 57.8056C202.561 59.8216 200.857 61.4296 198.745 62.6296C196.633 63.7816 194.209 64.3576 191.473 64.3576Z"
     fill="white"
     id="path133" />
  <path
     d="M169.068 64.3577C165.948 64.3577 163.668 63.2537 162.228 61.0457C160.836 58.8377 160.14 55.9097 160.14 52.2617C160.14 50.1017 160.404 47.3417 160.932 43.9817C161.508 40.5737 162.228 37.4057 163.092 34.4777C163.524 32.9417 164.1 31.8857 164.82 31.3097C165.54 30.7337 166.692 30.4457 168.276 30.4457C170.724 30.4457 171.948 31.2617 171.948 32.8937C171.948 34.0937 171.492 36.8777 170.58 41.2457C169.428 46.5257 168.852 50.1017 168.852 51.9737C168.852 53.4137 169.044 54.5177 169.428 55.2857C169.812 56.0537 170.46 56.4377 171.372 56.4377C172.236 56.4377 173.316 55.8377 174.612 54.6377C175.908 53.4377 177.636 51.5417 179.796 48.9497C180.372 48.2777 181.02 47.9417 181.74 47.9417C182.364 47.9417 182.844 48.2297 183.18 48.8057C183.564 49.3817 183.756 50.1737 183.756 51.1817C183.756 53.1017 183.3 54.5897 182.388 55.6457C177.636 61.4537 173.196 64.3577 169.068 64.3577Z"
     fill="white"
     id="path135" />
  <path
     d="M163.247 48.0855C163.871 48.0855 164.351 48.3975 164.687 49.0215C165.071 49.5975 165.263 50.3415 165.263 51.2535C165.263 52.3575 165.095 53.2215 164.759 53.8455C164.423 54.4695 163.895 55.0215 163.175 55.5015C159.047 58.2855 156.023 60.3495 154.103 61.6935L149.495 64.7895C147.671 74.7255 145.271 82.5255 142.295 88.1895C139.367 93.9015 135.623 96.7575 131.063 96.7575C128.615 96.7575 126.623 95.9895 125.087 94.4535C123.551 92.9655 122.783 90.9975 122.783 88.5495C122.783 85.1415 124.127 81.4695 126.815 77.5335C129.503 73.6455 134.543 68.8455 141.935 63.1335L142.367 60.3255C141.551 61.6215 140.471 62.6295 139.127 63.3495C137.831 64.0215 136.535 64.3575 135.239 64.3575C132.263 64.3575 129.887 63.2775 128.111 61.1175C126.335 58.9575 125.447 56.1255 125.447 52.6215C125.447 48.7815 126.335 45.1575 128.111 41.7495C129.887 38.2935 132.239 35.5335 135.167 33.4695C138.143 31.3575 141.287 30.3015 144.599 30.3015C145.655 30.3015 146.351 30.5175 146.687 30.9495C147.071 31.3335 147.383 32.0535 147.623 33.1095C148.535 32.9175 149.591 32.8215 150.791 32.8215C151.991 32.8215 152.831 33.0135 153.311 33.3975C153.839 33.7335 154.103 34.4295 154.103 35.4855C154.103 36.0615 154.079 36.5175 154.031 36.8535C153.839 38.3415 153.239 42.1095 152.231 48.1575C152.039 49.3095 151.823 50.5815 151.583 51.9735C151.391 53.3175 151.175 54.7575 150.935 56.2935C154.631 53.4135 158.183 50.8695 161.591 48.6615C162.215 48.2775 162.767 48.0855 163.247 48.0855ZM137.831 57.0855C138.935 57.0855 139.991 56.4135 140.999 55.0695C142.007 53.7255 142.727 51.8055 143.159 49.3095L145.463 36.9975C143.495 37.0455 141.671 37.8135 139.991 39.3015C138.311 40.7415 136.967 42.6615 135.959 45.0615C134.951 47.4615 134.447 50.0055 134.447 52.6935C134.447 54.1815 134.735 55.2855 135.311 56.0055C135.935 56.7255 136.775 57.0855 137.831 57.0855ZM131.855 89.7735C133.055 89.7735 134.399 88.3335 135.887 85.4535C137.423 82.5735 138.887 77.9895 140.279 71.7015C136.583 74.8695 133.919 77.7255 132.287 80.2695C130.655 82.8135 129.839 85.0455 129.839 86.9655C129.839 87.7815 129.983 88.4535 130.271 88.9815C130.607 89.5095 131.135 89.7735 131.855 89.7735Z"
     fill="white"
     id="path137" />
  <path
     d="M101.268 64.3575C98.2924 64.3575 95.9164 63.2775 94.1404 61.1175C92.3644 58.9575 91.4764 56.1255 91.4764 52.6215C91.4764 48.7815 92.3644 45.1575 94.1404 41.7495C95.9164 38.2935 98.2684 35.5335 101.196 33.4695C104.172 31.3575 107.316 30.3015 110.628 30.3015C111.684 30.3015 112.38 30.5175 112.716 30.9495C113.1 31.3335 113.412 32.0535 113.652 33.1095C114.66 32.9175 115.716 32.8215 116.82 32.8215C119.172 32.8215 120.348 33.6615 120.348 35.3415C120.348 36.3495 119.988 38.7495 119.268 42.5415C118.164 48.0615 117.612 51.9015 117.612 54.0615C117.612 54.7815 117.78 55.3575 118.116 55.7895C118.5 56.2215 118.98 56.4375 119.556 56.4375C120.468 56.4375 121.572 55.8615 122.868 54.7095C124.164 53.5095 125.916 51.5895 128.124 48.9495C128.7 48.2775 129.348 47.9415 130.068 47.9415C130.692 47.9415 131.172 48.2295 131.508 48.8055C131.892 49.3815 132.084 50.1735 132.084 51.1815C132.084 53.1015 131.628 54.5895 130.716 55.6455C128.748 58.0935 126.66 60.1575 124.452 61.8375C122.244 63.5175 120.108 64.3575 118.044 64.3575C116.46 64.3575 114.996 63.8295 113.652 62.7735C112.356 61.6695 111.372 60.1815 110.7 58.3095C108.204 62.3415 105.06 64.3575 101.268 64.3575ZM103.86 57.0855C104.916 57.0855 105.924 56.4615 106.884 55.2135C107.844 53.9655 108.54 52.3095 108.972 50.2455L111.636 36.9975C109.62 37.0455 107.748 37.8135 106.02 39.3015C104.34 40.7415 102.996 42.6615 101.988 45.0615C100.98 47.4615 100.476 50.0055 100.476 52.6935C100.476 54.1815 100.764 55.2855 101.34 56.0055C101.964 56.7255 102.804 57.0855 103.86 57.0855Z"
     fill="white"
     id="path139" />
  <path
     d="M16.776 64.3577C15 64.3577 13.728 63.9737 12.96 63.2057C12.192 62.3897 11.808 60.8777 11.808 58.6697C11.808 57.1817 11.952 55.2857 12.24 52.9817C12.576 50.6297 13.104 47.4137 13.824 43.3337C15.072 35.7977 16.056 29.2697 16.776 23.7497C17.208 20.2937 17.424 17.4137 17.424 15.1097C17.424 12.9497 16.632 11.8697 15.048 11.8697C13.8 11.8697 12.288 12.5177 10.512 13.8137C8.784 15.0617 6.864 17.0777 4.752 19.8617C4.08 20.7737 3.336 21.2297 2.52 21.2297C1.848 21.2297 1.248 20.9177 0.72 20.2936C0.24 19.6217 0 18.8777 0 18.0617C0 17.2937 0.144 16.5257 0.432 15.7577C0.768 14.9417 1.296 14.0297 2.016 13.0217C4.32 9.80565 6.888 7.33365 9.72 5.60565C12.552 3.82965 15.384 2.94165 18.216 2.94165C20.856 2.94165 22.872 3.78165 24.264 5.46165C25.704 7.14165 26.424 9.58965 26.424 12.8057C26.424 14.1017 26.304 15.6377 26.064 17.4137C25.824 19.1417 25.608 20.5577 25.416 21.6617C25.224 22.7657 25.08 23.5337 24.984 23.9657C27.72 16.1417 30.792 10.6937 34.2 7.62165C37.608 4.50165 41.352 2.94165 45.432 2.94165C48.552 2.94165 51 4.04565 52.776 6.25365C54.6 8.46165 55.512 11.5817 55.512 15.6137C55.512 17.1976 55.296 19.1656 54.864 21.5177C57.264 14.8937 60.072 10.1417 63.288 7.26165C66.504 4.38165 70.2 2.94165 74.376 2.94165C77.736 2.94165 80.304 4.02165 82.08 6.18165C83.904 8.34165 84.816 11.3657 84.816 15.2537C84.816 17.3657 84.504 19.9337 83.88 22.9576L79.488 43.5497C79.008 45.9497 78.768 48.0137 78.768 49.7417C78.768 51.7577 79.224 53.2697 80.136 54.2777C81.096 55.2857 82.416 55.7897 84.096 55.7897C85.68 55.7897 87.216 55.2617 88.704 54.2057C90.24 53.1497 92.04 51.3977 94.104 48.9497C94.68 48.2777 95.328 47.9417 96.048 47.9417C96.672 47.9417 97.152 48.2297 97.488 48.8057C97.872 49.3817 98.064 50.1737 98.064 51.1817C98.064 53.0537 97.608 54.5417 96.696 55.6457C94.2 58.6697 91.728 60.8777 89.28 62.2697C86.832 63.6617 84.264 64.3577 81.576 64.3577C77.496 64.3577 74.304 63.1577 72 60.7577C69.696 58.3097 68.544 55.0457 68.544 50.9657C68.544 48.1337 69.12 44.0297 70.272 38.6537L73.152 25.4777C73.248 25.0457 73.416 24.2777 73.656 23.1737C73.896 22.0697 74.088 21.0377 74.232 20.0777C74.376 19.0697 74.448 18.0857 74.448 17.1257C74.448 15.4457 74.112 14.1977 73.44 13.3817C72.816 12.5177 71.904 12.0857 70.704 12.0857C68.448 12.0857 66.072 13.5497 63.576 16.4777C61.128 19.3577 58.776 24.1577 56.52 30.8777C54.312 37.5977 52.512 46.3337 51.12 57.0857C50.784 59.9657 50.184 61.9097 49.32 62.9177C48.504 63.8777 47.16 64.3577 45.288 64.3577C43.656 64.3577 42.456 63.9737 41.688 63.2057C40.968 62.4377 40.608 60.9977 40.608 58.8857C40.608 56.9177 40.872 54.3497 41.4 51.1817C41.928 47.9657 42.6 44.1977 43.416 39.8777C45.624 28.2617 46.728 20.7737 46.728 17.4137C46.728 15.5897 46.368 14.2457 45.648 13.3817C44.976 12.5177 43.944 12.0857 42.552 12.0857C40.2 12.0857 37.776 13.4297 35.28 16.1177C32.784 18.7577 30.336 23.4857 27.936 30.3017C25.584 37.0697 23.616 46.2377 22.032 57.8057C21.696 60.2537 21.192 61.9577 20.52 62.9177C19.896 63.8777 18.648 64.3577 16.776 64.3577Z"
     fill="white"
     id="path141" />
  <path
     d="M160.728 10.8721C159.674 8.86471 162.246 6.92915 163.883 8.49826L168.136 12.5753C169.416 13.8027 171.352 14.0403 172.892 13.1589L176.652 11.0056C178.521 9.93523 180.529 12.1705 179.265 13.9148L177.067 16.949C176.219 18.1192 176.068 19.6558 176.672 20.9685L179.563 27.2492C180.432 29.1372 178.202 30.9336 176.542 29.6823L171.292 25.724C170.08 24.8101 168.456 24.661 167.097 25.339L160.779 28.4938C158.838 29.4626 156.959 27.0824 158.352 25.42L162.788 20.1263C163.829 18.8829 164.017 17.1334 163.263 15.6973L160.728 10.8721Z"
     fill="white"
     id="path143" />
</svg>
