<?xml version="1.0" encoding="utf-8"?>
<!-- Generator: Adobe Illustrator 26.3.1, SVG Export Plug-In . SVG Version: 6.00 Build 0)  -->
<svg version="1.1" xmlns="http://www.w3.org/2000/svg" xmlns:xlink="http://www.w3.org/1999/xlink" x="0px" y="0px"
	 viewBox="0 0 32 32" enable-background="new 0 0 32 32" xml:space="preserve">
<g id="Layer_1">
	<g>
		<g opacity="0.4">
			<path fill="#FFFFFF" d="M21.116,31.637H5.599c-2.881,0-5.225-2.344-5.225-5.225V5.588c0-2.881,2.344-5.225,5.225-5.225H20.96
				c2.881,0,5.225,2.344,5.225,5.225v9.354c0,0.621-0.504,1.125-1.125,1.125s-1.125-0.504-1.125-1.125V5.588
				c0-1.641-1.334-2.975-2.975-2.975H5.599c-1.641,0-2.975,1.334-2.975,2.975v20.824c0,1.641,1.334,2.975,2.975,2.975h15.517
				c1.555,0,2.819-1.266,2.819-2.82v-6.03c0-0.621,0.504-1.125,1.125-1.125s1.125,0.504,1.125,1.125v6.03
				C26.185,29.362,23.911,31.637,21.116,31.637z"/>
		</g>
		<g>
			<path fill="#FFFFFF" d="M19.926,10.123H6.59c-0.621,0-1.125-0.504-1.125-1.125S5.969,7.873,6.59,7.873h13.336
				c0.621,0,1.125,0.504,1.125,1.125S20.547,10.123,19.926,10.123z"/>
		</g>
		<g>
			<path fill="#FFFFFF" d="M18.926,14.891H6.59c-0.621,0-1.125-0.504-1.125-1.125s0.504-1.125,1.125-1.125h12.336
				c0.621,0,1.125,0.504,1.125,1.125S19.547,14.891,18.926,14.891z"/>
		</g>
		<g>
			<path fill="#FFFFFF" d="M13.914,19.659H6.59c-0.621,0-1.125-0.504-1.125-1.125s0.504-1.125,1.125-1.125h7.324
				c0.621,0,1.125,0.504,1.125,1.125S14.536,19.659,13.914,19.659z"/>
		</g>
		<g>
			<path fill="#FFFFFF" d="M15.101,28.801c-0.294,0-0.582-0.115-0.796-0.33c-0.306-0.306-0.409-0.76-0.266-1.167l1.52-4.33
				c0.056-0.159,0.146-0.304,0.266-0.423l9.071-9.076c0.422-0.423,1.17-0.423,1.592-0.001l2.817,2.817
				c0.438,0.439,0.438,1.152,0,1.592l-9.078,9.079c-0.12,0.119-0.266,0.211-0.426,0.267l-4.33,1.51
				C15.35,28.78,15.225,28.801,15.101,28.801z M17.597,23.96l-0.661,1.885l1.882-0.656l8.101-8.102l-1.227-1.227L17.597,23.96z"/>
		</g>
		<g>
			<path fill="#FFFFFF" d="M28.509,18.212c-0.288,0-0.576-0.109-0.796-0.329l-2.817-2.817c-0.438-0.439-0.438-1.151,0-1.591
				l1.409-1.41c1.217-1.216,3.194-1.216,4.409-0.001l0.001,0.001c1.214,1.215,1.214,3.193,0,4.408l-1.411,1.41
				C29.084,18.103,28.797,18.212,28.509,18.212z M27.283,14.27l1.227,1.227l0.615-0.614c0.337-0.338,0.337-0.889-0.001-1.227
				s-0.89-0.338-1.228,0L27.283,14.27z"/>
		</g>
	</g>
</g>
<g id="Layer_2">
</g>
</svg>
