<svg enable-background="new 0 0 32 32" viewBox="0 0 32 32" xmlns="http://www.w3.org/2000/svg"><g fill="#fff"><path d="m14.131 19.871c-.299 0-.585-.118-.796-.33l-3.758-3.759c-.439-.438-.438-1.151.001-1.591.438-.439 1.151-.44 1.591.001l2.962 2.963 6.7-6.7c.439-.439 1.152-.439 1.592 0 .438.439.438 1.152 0 1.592l-7.496 7.495c-.211.211-.498.329-.796.329z" opacity=".4"/><path d="m16 31.635c-.182 0-.363-.044-.528-.132l-5.431-2.89c-4.748-2.531-7.696-7.448-7.696-12.833v-8.84c0-.448.266-.853.677-1.031l12.53-5.45c.285-.127.61-.125.897 0l12.529 5.45c.41.179.676.583.676 1.031v8.84c0 5.385-2.948 10.302-7.695 12.833l-5.431 2.89c-.164.088-.346.132-.528.132zm-11.405-23.957v8.103c0 4.552 2.492 8.708 6.504 10.847l4.901 2.608 4.901-2.608c4.011-2.139 6.503-6.295 6.503-10.847v-8.103l-11.404-4.961z"/></g></svg>