<?xml version="1.0" encoding="utf-8"?>
<!-- Generator: Adobe Illustrator 26.3.1, SVG Export Plug-In . SVG Version: 6.00 Build 0)  -->
<svg version="1.1" xmlns="http://www.w3.org/2000/svg" xmlns:xlink="http://www.w3.org/1999/xlink" x="0px" y="0px"
	 viewBox="0 0 32 32" enable-background="new 0 0 32 32" xml:space="preserve">
<g id="Layer_1">
	<g>
		<g opacity="0.4">
			<path fill="#FFFFFF" d="M16,21.818c-3.208,0-5.818-2.61-5.818-5.818s2.61-5.818,5.818-5.818s5.818,2.61,5.818,5.818
				S19.208,21.818,16,21.818z M16,12.432c-1.968,0-3.568,1.601-3.568,3.568s1.601,3.568,3.568,3.568s3.568-1.601,3.568-3.568
				S17.968,12.432,16,12.432z"/>
		</g>
		<g>
			<path fill="#FFFFFF" d="M19.172,31.637h-6.344c-0.621,0-1.125-0.504-1.125-1.125v-1.823c0-1.042-0.604-2.003-1.617-2.57
				c-0.01-0.006-0.078-0.044-0.088-0.05c-1.016-0.577-2.206-0.611-3.163-0.071l-1.624,0.911c-0.532,0.298-1.207,0.117-1.518-0.407
				l-3.173-5.342c-0.155-0.261-0.198-0.572-0.12-0.865c0.079-0.293,0.272-0.542,0.536-0.69l1.62-0.909
				c0.938-0.526,1.496-1.523,1.493-2.667c0.003-1.198-0.556-2.195-1.493-2.723l-1.62-0.908c-0.264-0.148-0.457-0.397-0.536-0.69
				c-0.078-0.293-0.035-0.604,0.12-0.865l3.173-5.342c0.311-0.525,0.985-0.71,1.518-0.406l1.624,0.912
				c0.957,0.536,2.147,0.504,3.187-0.087c1.077-0.604,1.682-1.563,1.682-2.605V1.488c0-0.621,0.504-1.125,1.125-1.125h6.344
				c0.621,0,1.125,0.504,1.125,1.125v1.824c0,1.042,0.604,2.003,1.616,2.569c1.104,0.627,2.295,0.66,3.251,0.122l1.625-0.912
				c0.531-0.301,1.206-0.118,1.519,0.407l3.172,5.342c0.154,0.261,0.197,0.572,0.119,0.865c-0.079,0.293-0.272,0.542-0.536,0.69
				l-1.62,0.909c-0.932,0.522-1.489,1.512-1.493,2.648c0.001,0.017,0.001,0.032,0.001,0.046s0,0.029-0.001,0.047
				c0.004,1.136,0.562,2.125,1.493,2.648l1.62,0.908c0.264,0.148,0.457,0.397,0.536,0.69c0.078,0.293,0.035,0.604-0.119,0.865
				l-3.172,5.342c-0.312,0.524-0.987,0.705-1.518,0.407l-1.625-0.911c-0.957-0.537-2.147-0.506-3.188,0.085
				c-1.076,0.604-1.681,1.563-1.681,2.605v1.824C20.297,31.133,19.793,31.637,19.172,31.637z M13.954,29.387h4.094v-0.699
				c0-1.84,1.061-3.576,2.768-4.532c1.783-1.013,3.803-1.046,5.451-0.121l0.667,0.375l2.023-3.407l-0.615-0.345
				c-1.658-0.932-2.646-2.664-2.642-4.635c0-0.008,0-0.015,0-0.022s0-0.015,0-0.022c-0.004-1.971,0.983-3.703,2.642-4.634
				l0.615-0.346l-2.023-3.406l-0.667,0.375c-1.651,0.925-3.668,0.891-5.399-0.092c-1.759-0.985-2.819-2.722-2.819-4.562V2.613
				h-4.094v0.699c0,1.84-1.061,3.577-2.768,4.532C9.401,8.857,7.383,8.893,5.734,7.967L5.067,7.592l-2.023,3.406l0.615,0.345
				c1.659,0.933,2.646,2.665,2.642,4.636c0.005,2.014-0.982,3.746-2.642,4.678l-0.615,0.346l2.024,3.406l0.666-0.374
				c1.651-0.923,3.668-0.893,5.399,0.091c1.786,1.001,2.82,2.695,2.82,4.563V29.387z M26.825,16.024h0.01H26.825z M26.804,16h0.021
				H26.804z"/>
		</g>
	</g>
</g>
<g id="Layer_2">
</g>
</svg>
