<?xml version="1.0" encoding="utf-8"?>
<!-- Generator: Adobe Illustrator 26.3.1, SVG Export Plug-In . SVG Version: 6.00 Build 0)  -->
<svg version="1.1" xmlns="http://www.w3.org/2000/svg" xmlns:xlink="http://www.w3.org/1999/xlink" x="0px" y="0px"
	 viewBox="0 0 32 32" enable-background="new 0 0 32 32" xml:space="preserve">
<g id="Layer_1">
	<g>
		<g opacity="0.4">
			<path fill="#FFFFFF" d="M26.417,0.362H5.586c-2.88,0-5.22,2.34-5.22,5.22v20.83c0,2.88,2.34,5.22,5.22,5.22h20.83
				c2.88,0,5.22-2.34,5.22-5.22V5.583C31.636,2.702,29.296,0.362,26.417,0.362z M29.386,26.412c0,1.64-1.33,2.97-2.97,2.97H5.586
				c-1.64,0-2.97-1.33-2.97-2.97V5.583c0-1.64,1.33-2.97,2.97-2.97h20.83c1.64,0,2.97,1.33,2.97,2.97V26.412z"/>
		</g>
		<g>
			<path fill="#FFFFFF" d="M16,20.998c-0.621,0-1.125-0.504-1.125-1.125V16c0-0.621,0.504-1.125,1.125-1.125
				s1.125,0.504,1.125,1.125v3.873C17.125,20.494,16.622,20.998,16,20.998z"/>
		</g>
		<g>
			<path fill="#FFFFFF" d="M16,17.125c-0.621,0-1.125-0.504-1.125-1.125s0.504-1.125,1.125-1.125c2.005,0,3.636-1.631,3.636-3.636
				S18.005,7.604,16,7.604c-1.068,0-2.078,0.467-2.771,1.281c-0.401,0.472-1.112,0.532-1.585,0.128
				C11.17,8.61,11.113,7.9,11.516,7.428c1.12-1.318,2.755-2.074,4.484-2.074c3.245,0,5.886,2.641,5.886,5.886
				S19.246,17.125,16,17.125z"/>
		</g>
		<g>
			<path fill="#FFFFFF" d="M17.506,24.502c0,0.84-0.67,1.51-1.51,1.51c-0.83,0-1.5-0.67-1.5-1.51c0-0.83,0.67-1.5,1.5-1.5
				C16.836,23.002,17.506,23.672,17.506,24.502z"/>
		</g>
	</g>
</g>
<g id="Layer_2">
</g>
</svg>
