<?xml version="1.0" encoding="utf-8"?>
<!-- Generator: Adobe Illustrator 26.3.1, SVG Export Plug-In . SVG Version: 6.00 Build 0)  -->
<svg version="1.1" xmlns="http://www.w3.org/2000/svg" xmlns:xlink="http://www.w3.org/1999/xlink" x="0px" y="0px"
	 viewBox="0 0 32 32" enable-background="new 0 0 32 32" xml:space="preserve">
<g id="Layer_1">
	<g>
		<g opacity="0.4">
			<path fill="#FFFFFF" d="M26.417,0.362H5.586c-2.88,0-5.22,2.34-5.22,5.22v20.83c0,2.88,2.34,5.22,5.22,5.22h20.83
				c2.88,0,5.22-2.34,5.22-5.22V5.583C31.636,2.702,29.296,0.362,26.417,0.362z M29.386,26.412c0,1.64-1.33,2.97-2.97,2.97H5.586
				c-1.64,0-2.97-1.33-2.97-2.97V5.583c0-1.64,1.33-2.97,2.97-2.97h20.83c1.64,0,2.97,1.33,2.97,2.97V26.412z"/>
		</g>
		<g>
			<path fill="#FFFFFF" d="M17.506,8.542c0,0.83-0.67,1.51-1.51,1.51c-0.83,0-1.5-0.68-1.5-1.51c0-0.83,0.67-1.51,1.5-1.51
				C16.836,7.032,17.506,7.712,17.506,8.542z"/>
		</g>
		<g>
			<line fill="#FFFFFF" x1="16" y1="23.842" x2="16" y2="13.862"/>
			<path fill="#FFFFFF" d="M17.126,13.862v9.98c0,0.62-0.5,1.13-1.13,1.13c-0.62,0-1.12-0.51-1.12-1.13v-9.98
				c0-0.62,0.5-1.13,1.12-1.13C16.626,12.732,17.126,13.242,17.126,13.862z"/>
		</g>
	</g>
</g>
<g id="Layer_2">
</g>
</svg>
