<?xml version="1.0" encoding="utf-8"?>
<!-- Generator: Adobe Illustrator 26.3.1, SVG Export Plug-In . SVG Version: 6.00 Build 0)  -->
<svg version="1.1" xmlns="http://www.w3.org/2000/svg" xmlns:xlink="http://www.w3.org/1999/xlink" x="0px" y="0px"
	 viewBox="0 0 32 32" enable-background="new 0 0 32 32" xml:space="preserve">
<g id="Layer_1">
	<g>
		<path fill="#FFFFFF" d="M15.948,28.337c-0.288,0-0.576-0.109-0.796-0.329c-0.438-0.439-0.438-1.152,0-1.592l12.924-12.924
			c0.439-0.439,1.152-0.439,1.592,0c0.438,0.439,0.438,1.152,0,1.592L16.744,28.008C16.525,28.228,16.236,28.337,15.948,28.337z"/>
	</g>
	<g>
		<path fill="#FFFFFF" d="M3.966,16.356c-0.288,0-0.576-0.109-0.796-0.329c-0.438-0.439-0.438-1.152,0-1.592L16.095,1.51
			c0.439-0.439,1.152-0.439,1.592,0c0.438,0.439,0.438,1.152,0,1.592L4.762,16.027C4.542,16.246,4.254,16.356,3.966,16.356z"/>
	</g>
	<g>
		<path fill="#FFFFFF" d="M9.957,30.82c-2.563,0-4.974-0.999-6.787-2.812c-3.741-3.742-3.741-9.831,0-13.573
			c0.439-0.439,1.152-0.439,1.592,0c0.438,0.439,0.438,1.152,0,1.592c-2.865,2.864-2.865,7.525,0,10.39
			c1.388,1.389,3.233,2.153,5.195,2.153c1.963,0,3.808-0.765,5.195-2.152c0.439-0.439,1.153-0.44,1.591-0.001
			c0.439,0.439,0.44,1.152,0.001,1.591C14.932,29.821,12.522,30.82,9.957,30.82z"/>
	</g>
	<g>
		<path fill="#FFFFFF" d="M28.872,15.413c-0.288,0-0.576-0.11-0.796-0.33c-0.439-0.439-0.438-1.151,0.001-1.591
			c0.844-0.844,1.309-1.965,1.309-3.158s-0.465-2.314-1.309-3.158s-1.966-1.309-3.159-1.309c-1.192,0-2.314,0.465-3.157,1.309
			c-0.439,0.439-1.152,0.439-1.592,0c-0.438-0.439-0.438-1.152,0-1.592c1.269-1.269,2.956-1.967,4.749-1.967
			c1.794,0,3.481,0.698,4.75,1.967s1.968,2.956,1.968,4.75s-0.699,3.481-1.969,4.75C29.447,15.304,29.16,15.413,28.872,15.413z"/>
	</g>
	<g opacity="0.4">
		<g>
			<path fill="#FFFFFF" d="M13.102,22.115c-1.004,0-2.008-0.382-2.772-1.146c-0.741-0.741-1.148-1.726-1.148-2.772
				c0-1.048,0.407-2.032,1.147-2.773c0.439-0.439,1.152-0.439,1.592,0c0.438,0.439,0.438,1.152,0,1.592
				c-0.652,0.651-0.652,1.711,0,2.362c0.65,0.652,1.712,0.652,2.362,0c0.439-0.439,1.152-0.439,1.592,0
				c0.438,0.439,0.438,1.152,0,1.592C15.109,21.734,14.106,22.115,13.102,22.115z"/>
		</g>
		<g>
			<path fill="#FFFFFF" d="M11.125,17.345c-0.288,0-0.576-0.109-0.796-0.329c-0.438-0.439-0.438-1.152,0-1.592l9.84-9.84
				c0.439-0.439,1.152-0.439,1.592,0c0.438,0.439,0.438,1.152,0,1.592l-9.84,9.84C11.701,17.236,11.413,17.345,11.125,17.345z"/>
		</g>
		<g>
			<path fill="#FFFFFF" d="M15.078,21.299c-0.288,0-0.576-0.109-0.796-0.329c-0.438-0.439-0.438-1.152,0-1.592l9.284-9.284
				c0.439-0.439,1.152-0.439,1.592,0c0.438,0.439,0.438,1.152,0,1.592l-9.284,9.284C15.654,21.19,15.366,21.299,15.078,21.299z"/>
		</g>
	</g>
</g>
<g id="Layer_2">
</g>
</svg>
