<?xml version="1.0" encoding="UTF-8" standalone="no"?>
<!-- Generator: Adobe Illustrator 26.3.1, SVG Export Plug-In . SVG Version: 6.00 Build 0)  -->

<svg
   version="1.1"
   x="0px"
   y="0px"
   viewBox="0 0 32 32"
   enable-background="new 0 0 32 32"
   xml:space="preserve"
   id="svg20"
   sodipodi:docname="blockchain.svg"
   inkscape:version="1.2.1 (9c6d41e410, 2022-07-14)"
   xmlns:inkscape="http://www.inkscape.org/namespaces/inkscape"
   xmlns:sodipodi="http://sodipodi.sourceforge.net/DTD/sodipodi-0.dtd"
   xmlns="http://www.w3.org/2000/svg"
   xmlns:svg="http://www.w3.org/2000/svg"><defs
   id="defs24" /><sodipodi:namedview
   id="namedview22"
   pagecolor="#505050"
   bordercolor="#ffffff"
   borderopacity="1"
   inkscape:showpageshadow="0"
   inkscape:pageopacity="0"
   inkscape:pagecheckerboard="1"
   inkscape:deskcolor="#505050"
   showgrid="false"
   inkscape:zoom="26.15625"
   inkscape:cx="11.718041"
   inkscape:cy="16.019116"
   inkscape:window-width="3840"
   inkscape:window-height="1017"
   inkscape:window-x="3232"
   inkscape:window-y="1432"
   inkscape:window-maximized="1"
   inkscape:current-layer="g16" />
<g
   id="Layer_1">
	<g
   id="g16">
		<g
   opacity="0.4"
   id="g4">
			<path
   fill="#FFFFFF"
   d="M26.417,0.362H5.586c-2.88,0-5.22,2.34-5.22,5.22v20.83c0,2.88,2.34,5.22,5.22,5.22h20.83     c2.88,0,5.22-2.34,5.22-5.22V5.583C31.636,2.702,29.296,0.362,26.417,0.362z M29.386,26.412c0,1.64-1.33,2.97-2.97,2.97H5.586     c-1.64,0-2.97-1.33-2.97-2.97V5.583c0-1.64,1.33-2.97,2.97-2.97h20.83c1.64,0,2.97,1.33,2.97,2.97V26.412z"
   id="path2" />
		</g>
		
		
	</g>
</g>
<g
   id="Layer_2">
</g>
</svg>
