<?xml version="1.0" encoding="utf-8"?>
<!-- Generator: Adobe Illustrator 26.3.1, SVG Export Plug-In . SVG Version: 6.00 Build 0)  -->
<svg version="1.1" xmlns="http://www.w3.org/2000/svg" xmlns:xlink="http://www.w3.org/1999/xlink" x="0px" y="0px"
	 viewBox="0 0 32 32" enable-background="new 0 0 32 32" xml:space="preserve">
<g id="Layer_1">
	<g opacity="0.4">
		<path fill="#FFFFFF" d="M16,31.637C7.378,31.637,0.363,24.622,0.363,16S7.378,0.363,16,0.363S31.637,7.378,31.637,16
			S24.622,31.637,16,31.637z M16,2.613C8.618,2.613,2.613,8.618,2.613,16S8.618,29.387,16,29.387S29.387,23.382,29.387,16
			S23.382,2.613,16,2.613z"/>
	</g>
	<g>
		<path fill="#FFFFFF" d="M14.011,22.672c-0.288,0-0.576-0.109-0.796-0.329c-0.438-0.439-0.438-1.152,0-1.592l4.757-4.755
			l-4.753-4.753c-0.439-0.439-0.438-1.152,0-1.592c0.439-0.439,1.152-0.439,1.592,0l5.548,5.549c0.439,0.439,0.438,1.152,0,1.592
			l-5.552,5.551C14.587,22.562,14.299,22.672,14.011,22.672z"/>
	</g>
</g>
<g id="Layer_2">
</g>
</svg>
