<?xml version="1.0" encoding="utf-8"?>
<!-- Generator: Adobe Illustrator 26.3.1, SVG Export Plug-In . SVG Version: 6.00 Build 0)  -->
<svg version="1.1" xmlns="http://www.w3.org/2000/svg" xmlns:xlink="http://www.w3.org/1999/xlink" x="0px" y="0px"
	 viewBox="0 0 32 32" enable-background="new 0 0 32 32" xml:space="preserve">
<g id="Layer_1">
	<path opacity="0.4" fill="#FFFFFF" d="M1.776,31.351c-0.288,0-0.576-0.109-0.796-0.329c-0.438-0.439-0.438-1.152,0-1.592
		l6.959-6.959c0.439-0.439,1.152-0.439,1.592,0c0.438,0.439,0.438,1.152,0,1.592l-6.959,6.959
		C2.352,31.242,2.064,31.351,1.776,31.351z"/>
	<g>
		<path fill="#FFFFFF" d="M15.902,30.737c-0.829,0-1.62-0.324-2.213-0.919L2.21,18.327c-0.682-0.683-1.009-1.626-0.896-2.589
			c0.108-0.937,0.625-1.755,1.416-2.245c2.707-1.677,5.951-2.148,9.004-1.332L16.26,7.62c-0.939-1.342-1.034-3.13-0.172-4.492
			c0.74-1.166,2.002-1.863,3.377-1.864c0.003,0,0.007,0,0.011,0c1.064,0,2.064,0.414,2.816,1.168l7.247,7.255
			c1.557,1.558,1.559,4.094,0.005,5.652c-0.754,0.756-1.758,1.174-2.826,1.177c-0.004,0-0.007,0-0.011,0
			c-0.855,0-1.67-0.268-2.348-0.764l-4.521,4.534c0.821,3.049,0.353,6.296-1.322,9.01c-0.49,0.794-1.31,1.312-2.246,1.421
			C16.148,30.73,16.025,30.737,15.902,30.737z M8.767,14.021c-1.695,0-3.374,0.468-4.853,1.384c-0.279,0.173-0.35,0.446-0.367,0.593
			c-0.032,0.276,0.061,0.546,0.254,0.739l11.479,11.491c0.191,0.191,0.445,0.282,0.731,0.253c0.146-0.017,0.418-0.088,0.591-0.368
			c1.446-2.344,1.774-5.183,0.898-7.787c-0.136-0.404-0.031-0.851,0.27-1.152l5.758-5.774c0.422-0.424,1.172-0.424,1.594,0
			l0.358,0.359c0.326,0.326,0.763,0.507,1.227,0.507c0.002,0,0.003,0,0.005,0c0.469-0.001,0.908-0.185,1.238-0.516
			c0.68-0.682,0.679-1.791-0.003-2.474l-7.247-7.255c-0.327-0.327-0.763-0.508-1.227-0.508c-0.002,0-0.003,0-0.005,0
			c-0.611,0.001-1.15,0.3-1.48,0.819c-0.433,0.682-0.29,1.634,0.339,2.264l0.273,0.274c0.438,0.439,0.438,1.149,0,1.588l-5.75,5.767
			c-0.303,0.303-0.747,0.409-1.153,0.273C10.74,14.178,9.751,14.021,8.767,14.021z"/>
	</g>
</g>
<g id="Layer_2">
</g>
</svg>
