<?xml version="1.0" encoding="utf-8"?>
<!-- Generator: Adobe Illustrator 26.3.1, SVG Export Plug-In . SVG Version: 6.00 Build 0)  -->
<svg version="1.1" xmlns="http://www.w3.org/2000/svg" xmlns:xlink="http://www.w3.org/1999/xlink" x="0px" y="0px"
	 viewBox="0 0 32 32" enable-background="new 0 0 32 32" xml:space="preserve">
<g id="Layer_1">
	<g>
		<g>
			<path fill="#FFFFFF" d="M24.855,10.846H5.506c-0.621,0-1.125-0.504-1.125-1.125s0.504-1.125,1.125-1.125h19.349
				c0.621,0,1.125,0.504,1.125,1.125S25.476,10.846,24.855,10.846z"/>
		</g>
		<g>
			<path fill="#FFFFFF" d="M22.011,14.685c-0.288,0-0.576-0.11-0.796-0.33c-0.439-0.439-0.438-1.152,0.001-1.591l3.047-3.044
				l-3.049-3.048c-0.438-0.439-0.438-1.152,0-1.592c0.439-0.439,1.152-0.439,1.592,0l3.845,3.845
				c0.211,0.212,0.329,0.498,0.329,0.796c0,0.299-0.119,0.585-0.33,0.796l-3.844,3.839C22.586,14.576,22.299,14.685,22.011,14.685z"
				/>
		</g>
		<g>
			<path fill="#FFFFFF" d="M26.494,23.677h-19.3c-0.621,0-1.125-0.504-1.125-1.125s0.504-1.125,1.125-1.125h19.3
				c0.621,0,1.125,0.504,1.125,1.125S27.115,23.677,26.494,23.677z"/>
		</g>
		<g>
			<path fill="#FFFFFF" d="M9.99,27.52c-0.288,0-0.576-0.109-0.796-0.329l-3.845-3.845C5.138,23.134,5.02,22.848,5.02,22.55
				c0-0.299,0.119-0.585,0.33-0.796l3.844-3.84c0.439-0.439,1.151-0.438,1.591,0.001s0.438,1.151-0.001,1.591L7.737,22.55
				l3.049,3.049c0.438,0.439,0.438,1.152,0,1.592C10.566,27.411,10.278,27.52,9.99,27.52z"/>
		</g>
		<g>
			<path fill="#FFFFFF" d="M1.488,27.52c-0.621,0-1.125-0.504-1.125-1.125v-8.232c0-0.621,0.504-1.125,1.125-1.125
				s1.125,0.504,1.125,1.125v8.232C2.613,27.016,2.109,27.52,1.488,27.52z"/>
		</g>
		<g>
			<path fill="#FFFFFF" d="M30.512,14.962c-0.621,0-1.125-0.504-1.125-1.125V5.605c0-0.621,0.504-1.125,1.125-1.125
				s1.125,0.504,1.125,1.125v8.232C31.637,14.458,31.133,14.962,30.512,14.962z"/>
		</g>
	</g>
</g>
<g id="Layer_2">
</g>
</svg>
