<?xml version="1.0" encoding="utf-8"?>
<!-- Generator: Adobe Illustrator 26.3.1, SVG Export Plug-In . SVG Version: 6.00 Build 0)  -->
<svg version="1.1" xmlns="http://www.w3.org/2000/svg" xmlns:xlink="http://www.w3.org/1999/xlink" x="0px" y="0px"
	 viewBox="0 0 32 32" enable-background="new 0 0 32 32" xml:space="preserve">
<g id="Layer_1">
	<g opacity="0.4">
		<g>
			<path fill="#FFFFFF" d="M12.749,25.567c-0.288,0-0.576-0.109-0.796-0.329c-0.438-0.439-0.438-1.152,0-1.592l7.662-7.662
				c0.439-0.439,1.152-0.439,1.592,0c0.438,0.439,0.438,1.152,0,1.592l-7.662,7.662C13.325,25.458,13.037,25.567,12.749,25.567z"/>
		</g>
		<g>
			<path fill="#FFFFFF" d="M20.411,23.303c-0.621,0-1.125-0.504-1.125-1.125v-4.272h-4.272c-0.621,0-1.125-0.504-1.125-1.125
				s0.504-1.125,1.125-1.125h5.397c0.621,0,1.125,0.504,1.125,1.125v5.397C21.536,22.799,21.032,23.303,20.411,23.303z"/>
		</g>
	</g>
	<g>
		<path fill="#FFFFFF" d="M26.658,31.632H5.342c-2.745,0-4.979-2.233-4.979-4.979v-12.08c0-2.746,2.233-4.979,4.979-4.979h21.316
			c2.745,0,4.979,2.233,4.979,4.979v12.08C31.637,29.398,29.403,31.632,26.658,31.632z M5.342,11.843
			c-1.505,0-2.729,1.225-2.729,2.729v12.08c0,1.505,1.224,2.729,2.729,2.729h21.316c1.505,0,2.729-1.225,2.729-2.729v-12.08
			c0-1.505-1.224-2.729-2.729-2.729H5.342z"/>
	</g>
	<g>
		<path fill="#FFFFFF" d="M30.512,18.603c-0.621,0-1.125-0.504-1.125-1.125V9.629c0-1.869-1.224-3.39-2.729-3.39h-2.176
			c-0.621,0-1.125-0.504-1.125-1.125s0.504-1.125,1.125-1.125h2.176c2.745,0,4.979,2.53,4.979,5.64v7.849
			C31.637,18.099,31.133,18.603,30.512,18.603z"/>
	</g>
	<g>
		<path fill="#FFFFFF" d="M1.488,18.603c-0.621,0-1.125-0.504-1.125-1.125V9.629c0-3.109,2.233-5.64,4.979-5.64h6.521
			c0.621,0,1.125,0.504,1.125,1.125s-0.504,1.125-1.125,1.125H5.342c-1.505,0-2.729,1.521-2.729,3.39v7.849
			C2.613,18.099,2.109,18.603,1.488,18.603z"/>
	</g>
	<g>
		<path fill="#FFFFFF" d="M26.942,11.791c-0.391,0-0.771-0.203-0.978-0.567l-4.017-7.03c-0.844-1.496-2.751-2.025-4.263-1.184
			L3.723,11.574c-0.529,0.324-1.223,0.159-1.547-0.371c-0.325-0.529-0.159-1.222,0.371-1.547l14.002-8.588
			c2.629-1.466,5.909-0.553,7.356,2.016l4.013,7.024c0.309,0.539,0.121,1.227-0.419,1.534
			C27.323,11.743,27.132,11.791,26.942,11.791z"/>
	</g>
</g>
<g id="Layer_2">
</g>
</svg>
