<?xml version="1.0" encoding="UTF-8"?><svg xmlns="http://www.w3.org/2000/svg" viewBox="0 0 318 318"><g id="a"/><g id="b"><g id="c"><rect width="318" height="318" style="fill:#fff; opacity:0;"/><g><path d="M159,309c-6.45,0-11.67-5.23-11.67-11.67,0-65.47,22.35-117.21,42.52-150.57,15.79-26.12,34.18-11.44,19.23,13.78-18.25,30.79-38.4,78.07-38.4,136.79,0,6.45-5.23,11.67-11.67,11.67Z" style="fill:#54a3e3;"/><path d="M159,309c-6.45,0-11.67-5.23-11.67-11.67,0-56.41-18.22-102.27-35.52-133.1-15.48-27.58,2.95-42.2,19.2-13.93,19.21,33.42,39.66,83.83,39.66,147.03,0,6.45-5.23,11.67-11.67,11.67Z" style="fill:#54a3e3;"/><path d="M229.02,50.19c-.67,0-1.33,.03-1.99,.05,1.96,6.51,3.03,13.4,3.03,20.54,0,34.07-23.98,62.52-55.98,69.44,10.26,19.91,31,33.53,54.94,33.53,34.12,0,61.78-27.66,61.78-61.78s-27.66-61.78-61.78-61.78Z" style="fill:#94df3f;"/><path d="M87.94,70.78c0-7.15,1.07-14.04,3.03-20.54-.66-.02-1.32-.05-1.99-.05-34.12,0-61.78,27.66-61.78,61.78s27.66,61.78,61.78,61.78c23.94,0,44.68-13.62,54.94-33.53-32-6.92-55.98-35.37-55.98-69.44Z" style="fill:#94df3f;"/><circle cx="159" cy="70.78" r="61.78" style="fill:#94df3f;"/></g></g></g></svg>