<?xml version="1.0" encoding="utf-8"?>
<!-- Generator: Adobe Illustrator 26.3.1, SVG Export Plug-In . SVG Version: 6.00 Build 0)  -->
<svg version="1.1" xmlns="http://www.w3.org/2000/svg" xmlns:xlink="http://www.w3.org/1999/xlink" x="0px" y="0px"
	 viewBox="0 0 32 32" enable-background="new 0 0 32 32" xml:space="preserve">
<g id="Layer_1">
	<g>
		<g>
			<path fill="#5D6BC1" d="M24.168,23.454H7.803c-0.621,0-1.125-0.504-1.125-1.125s0.504-1.125,1.125-1.125h16.365
				c0.621,0,1.125,0.504,1.125,1.125S24.79,23.454,24.168,23.454z"/>
		</g>
		<g>
			<path fill="#5D6BC1" d="M15.986,22.583c-0.621,0-1.125-0.504-1.125-1.125v-10.89c0-0.621,0.504-1.125,1.125-1.125
				s1.125,0.504,1.125,1.125v10.89C17.111,22.079,16.607,22.583,15.986,22.583z"/>
		</g>
		<g>
			<path fill="#5D6BC1" d="M19.676,5.463c-0.288,0-0.576-0.109-0.796-0.329c-0.438-0.439-0.438-1.152,0-1.592l2.85-2.85
				c0.439-0.439,1.152-0.439,1.592,0c0.438,0.439,0.438,1.152,0,1.592l-2.85,2.85C20.252,5.354,19.964,5.463,19.676,5.463z"/>
		</g>
		<g>
			<path fill="#5D6BC1" d="M12.078,5.463c-0.288,0-0.576-0.109-0.796-0.329l-2.85-2.85c-0.438-0.439-0.438-1.152,0-1.592
				c0.439-0.439,1.152-0.439,1.592,0l2.85,2.85c0.438,0.439,0.438,1.152,0,1.592C12.654,5.354,12.366,5.463,12.078,5.463z"/>
		</g>
		<g>
			<path fill="#060606" d="M24.168,14.087c-0.621,0-1.125-0.504-1.125-1.125s0.504-1.125,1.125-1.125
				c1.846,0,3.347-1.501,3.347-3.347c0-0.621,0.504-1.125,1.125-1.125s1.125,0.504,1.125,1.125
				C29.765,11.576,27.254,14.087,24.168,14.087z"/>
		</g>
		<g>
			<path fill="#060606" d="M28.64,27.926c-0.621,0-1.125-0.504-1.125-1.125c0-1.846-1.501-3.347-3.347-3.347
				c-0.621,0-1.125-0.504-1.125-1.125s0.504-1.125,1.125-1.125c3.086,0,5.597,2.511,5.597,5.597
				C29.765,27.422,29.261,27.926,28.64,27.926z"/>
		</g>
		<g>
			<path fill="#060606" d="M30.512,18.509h-6.344c-0.621,0-1.125-0.504-1.125-1.125s0.504-1.125,1.125-1.125h6.344
				c0.621,0,1.125,0.504,1.125,1.125S31.133,18.509,30.512,18.509z"/>
		</g>
		<g>
			<path fill="#060606" d="M3.332,27.926c-0.621,0-1.125-0.504-1.125-1.125c0-3.086,2.511-5.597,5.597-5.597
				c0.621,0,1.125,0.504,1.125,1.125s-0.504,1.125-1.125,1.125c-1.846,0-3.347,1.501-3.347,3.347
				C4.457,27.422,3.953,27.926,3.332,27.926z"/>
		</g>
		<g>
			<path fill="#060606" d="M7.803,14.087c-3.086,0-5.597-2.511-5.597-5.597c0-0.621,0.504-1.125,1.125-1.125S4.457,7.869,4.457,8.49
				c0,1.846,1.501,3.347,3.347,3.347c0.621,0,1.125,0.504,1.125,1.125S8.424,14.087,7.803,14.087z"/>
		</g>
		<g>
			<path fill="#060606" d="M7.803,19.032H1.488c-0.621,0-1.125-0.504-1.125-1.125s0.504-1.125,1.125-1.125h6.315
				c0.621,0,1.125,0.504,1.125,1.125S8.424,19.032,7.803,19.032z"/>
		</g>
		<g>
			<path fill="#060606" d="M15.986,31.637c-5.132,0-9.308-4.176-9.308-9.308c0-0.621,0.504-1.125,1.125-1.125
				s1.125,0.504,1.125,1.125c0,3.892,3.166,7.058,7.058,7.058s7.058-3.166,7.058-7.058c0-0.621,0.504-1.125,1.125-1.125
				s1.125,0.504,1.125,1.125C25.293,27.461,21.118,31.637,15.986,31.637z"/>
		</g>
		<g>
			<path fill="#060606" d="M24.168,23.454c-0.621,0-1.125-0.504-1.125-1.125V11.626c0-0.546-0.443-0.989-0.989-0.989H9.917
				c-0.545,0-0.988,0.443-0.988,0.989v10.703c0,0.621-0.504,1.125-1.125,1.125s-1.125-0.504-1.125-1.125V11.626
				c0-1.786,1.453-3.239,3.238-3.239h12.138c1.786,0,3.239,1.453,3.239,3.239v10.703C25.293,22.95,24.79,23.454,24.168,23.454z"/>
		</g>
		<g>
			<path fill="#060606" d="M21.831,9.994c-0.621,0-1.125-0.504-1.125-1.125c0-2.603-2.117-4.72-4.72-4.72s-4.72,2.117-4.72,4.72
				c0,0.621-0.504,1.125-1.125,1.125S9.016,9.49,9.016,8.869c0-3.843,3.127-6.97,6.97-6.97s6.97,3.127,6.97,6.97
				C22.956,9.49,22.452,9.994,21.831,9.994z"/>
		</g>
	</g>
</g>
<g id="Layer_2">
</g>
</svg>
