<?xml version="1.0" encoding="utf-8"?>
<!-- Generator: Adobe Illustrator 26.3.1, SVG Export Plug-In . SVG Version: 6.00 Build 0)  -->
<svg version="1.1" xmlns="http://www.w3.org/2000/svg" xmlns:xlink="http://www.w3.org/1999/xlink" x="0px" y="0px"
	 viewBox="0 0 32 32" enable-background="new 0 0 32 32" xml:space="preserve">
<g id="Layer_1">
	<g>
		<g>
			<path fill="#5D6BC1" d="M16,26.363c-6.476,0-11.963-4.911-14.657-7.839l0,0c-1.324-1.439-1.324-3.609,0-5.049
				C4.037,10.548,9.523,5.637,16,5.637s11.963,4.911,14.657,7.839c1.324,1.439,1.324,3.609,0,5.049
				C27.963,21.452,22.477,26.363,16,26.363z M16,7.887c-5.617,0-10.557,4.456-13.001,7.112c-0.525,0.57-0.525,1.432,0,2.002l0,0
				c2.444,2.656,7.384,7.112,13.001,7.112s10.557-4.456,13.001-7.112c0.525-0.57,0.525-1.432,0-2.002
				C26.557,12.343,21.617,7.887,16,7.887z"/>
		</g>
		<g>
			<path fill="#231F20" d="M16,21.558c-3.064,0-5.558-2.493-5.558-5.558s2.493-5.558,5.558-5.558s5.558,2.493,5.558,5.558
				S19.064,21.558,16,21.558z M16,12.692c-1.824,0-3.308,1.483-3.308,3.308s1.483,3.308,3.308,3.308s3.308-1.483,3.308-3.308
				S17.824,12.692,16,12.692z"/>
		</g>
	</g>
</g>
<g id="Layer_2">
</g>
</svg>
