<svg width="34" height="33" viewBox="0 0 34 33" fill="none" xmlns="http://www.w3.org/2000/svg">
<path opacity="0.38" d="M33.0929 5.2714L29.1376 25.3204C29.0452 25.7891 28.6342 26.1269 28.1566 26.1269H5.80054C5.32287 26.1269 4.9119 25.7891 4.81945 25.3204L0.864138 5.2714C0.656379 4.21829 2.02797 3.62224 2.65612 4.49266L10.2822 15.0599C10.7691 15.7347 11.8191 15.5542 12.0528 14.7556L16.0188 1.20447C16.2994 0.245649 17.6577 0.245645 17.9383 1.20446L21.9043 14.7556C22.138 15.5542 23.188 15.7347 23.6749 15.0599L31.301 4.49266C31.9291 3.62224 33.3007 4.2183 33.0929 5.2714Z" fill="#5C6BC0"/>
<path d="M31.9252 5.5074L28.0744 25.0269H5.88274L2.0319 5.5074L9.39018 15.7036C10.4128 17.1206 12.6177 16.7417 13.1085 15.0646L16.9785 1.84137L20.8486 15.0646C21.3394 16.7417 23.5443 17.1206 24.5669 15.7036L31.9252 5.5074Z" stroke="#5C6BC0" stroke-width="2.2" stroke-linejoin="round"/>
<rect x="4.97855" y="29.1279" width="24" height="2.2" rx="1.1" fill="#5C6BC0"/>
</svg>
