<?xml version="1.0" encoding="UTF-8" standalone="no"?>
<svg
   viewBox="0 0 32 32"
   version="1.1"
   id="svg222"
   sodipodi:docname="manage-crown-rounded.svg"
   inkscape:version="1.2.1 (9c6d41e410, 2022-07-14)"
   width="32"
   height="32"
   xmlns:inkscape="http://www.inkscape.org/namespaces/inkscape"
   xmlns:sodipodi="http://sodipodi.sourceforge.net/DTD/sodipodi-0.dtd"
   xmlns="http://www.w3.org/2000/svg"
   xmlns:svg="http://www.w3.org/2000/svg">
  <defs
     id="defs226">
    <inkscape:path-effect
       effect="fillet_chamfer"
       id="path-effect260"
       is_visible="true"
       lpeversion="1"
       nodesatellites_param="F,0,0,1,0,0,0,1 @ F,0,0,1,0,0,0,1 @ F,0,1,1,0,1.7514253,0,1 @ F,0,1,1,0,1.7514253,0,1 @ F,0,1,1,0,1.7514253,0,1 @ F,0,1,1,0,1.7514253,0,1 @ F,0,0,1,0,0,0,1 | F,0,0,1,0,0,0,1 @ F,0,1,1,0,1.7514253,0,1 @ F,0,1,1,0,1.7514253,0,1 @ F,0,1,1,0,1.7514253,0,1 @ F,0,1,1,0,1.7514253,0,1 @ F,0,1,1,0,1.7514253,0,1 @ F,0,1,1,0,1.7514253,0,1 @ F,0,0,1,0,0,0,1 | F,0,0,1,0,1.7514253,0,1 @ F,0,1,1,0,1.7514253,0,1 @ F,0,0,1,0,0,0,1 @ F,0,0,1,0,0,0,1 @ F,0,0,1,0,0,0,1 @ F,0,0,1,0,0,0,1"
       unit="px"
       method="auto"
       mode="F"
       radius="0"
       chamfer_steps="1"
       flexible="false"
       use_knot_distance="true"
       apply_no_radius="true"
       apply_with_radius="true"
       only_selected="false"
       hide_knots="false" />
  </defs>
  <sodipodi:namedview
     id="namedview224"
     pagecolor="#505050"
     bordercolor="#ffffff"
     borderopacity="1"
     inkscape:showpageshadow="0"
     inkscape:pageopacity="0"
     inkscape:pagecheckerboard="1"
     inkscape:deskcolor="#505050"
     showgrid="false"
     inkscape:zoom="18.270833"
     inkscape:cx="-28.460662"
     inkscape:cy="10.891676"
     inkscape:window-width="3840"
     inkscape:window-height="1009"
     inkscape:window-x="3232"
     inkscape:window-y="1432"
     inkscape:window-maximized="1"
     inkscape:current-layer="svg222" />
  <a
     id="a263">
    <path
       d="m 16.0375,9.35 5.2125,9.035 3.910676,-3.519608 a 0.58097304,0.58097304 29.66136 0 1 0.958341,0.545772 l -0.529284,2.646422 A 2.1363954,2.1363954 140.65497 0 1 23.494825,19.775 H 8.5801753 A 2.1363954,2.1363954 39.345034 0 1 6.4852672,18.057586 L 5.9559828,15.411164 A 0.58097304,0.58097304 150.33864 0 1 6.9143242,14.865392 L 10.825,18.385 16.0375,9.35 m 0,-6.95 -5.198758,8.912156 A 1.4178397,1.4178397 171.26506 0 1 8.6603002,11.646864 L 1.6959498,5.3156362 A 0.59319043,0.59319043 150.98442 0 0 0.71330448,5.8606747 L 3.5616955,21.526825 A 2.0985801,2.0985801 39.847577 0 0 5.6264253,23.25 l 20.8221497,0 a 2.0985801,2.0985801 140.15242 0 0 2.064729,-1.723175 L 31.361696,5.8606747 A 0.59319043,0.59319043 29.015579 0 0 30.37905,5.3156362 L 23.4147,11.646864 A 1.4178397,1.4178397 8.7349369 0 1 21.236258,11.312156 L 16.0375,2.4 M 26.448575,26.725 H 5.6264253 A 1.7444765,1.7444765 135.22868 0 0 3.875,28.4625 C 3.875,29.505 4.57,30.2 5.6125,30.2 h 20.85 C 27.505,30.2 28.2,29.505 28.2,28.4625 A 1.7444765,1.7444765 44.771317 0 0 26.448575,26.725 Z"
       id="path220"
       style="fill:#5d6bc1;fill-opacity:1;stroke-width:1.7375"
       inkscape:path-effect="#path-effect260"
       inkscape:original-d="M 16.0375,9.35 21.25,18.385 26.4625,13.69375 25.24625,19.775 H 6.82875 L 5.6125,13.69375 10.825,18.385 16.0375,9.35 m 0,-6.95 L 9.95625,12.825 0.4,4.1375 3.875,23.25 H 28.2 L 31.675,4.1375 22.11875,12.825 16.0375,2.4 M 28.2,26.725 H 3.875 v 1.7375 C 3.875,29.505 4.57,30.2 5.6125,30.2 h 20.85 C 27.505,30.2 28.2,29.505 28.2,28.4625 Z" />
  </a>
</svg>
