<?xml version="1.0" encoding="UTF-8" standalone="no"?>
<svg
   height="32"
   viewBox="0 96 32 32"
   width="32"
   version="1.1"
   id="svg32347"
   sodipodi:docname="manage-wrench.svg"
   inkscape:version="1.2.1 (9c6d41e410, 2022-07-14)"
   xmlns:inkscape="http://www.inkscape.org/namespaces/inkscape"
   xmlns:sodipodi="http://sodipodi.sourceforge.net/DTD/sodipodi-0.dtd"
   xmlns="http://www.w3.org/2000/svg"
   xmlns:svg="http://www.w3.org/2000/svg">
  <defs
     id="defs32351" />
  <sodipodi:namedview
     id="namedview32349"
     pagecolor="#505050"
     bordercolor="#ffffff"
     borderopacity="1"
     inkscape:showpageshadow="0"
     inkscape:pageopacity="0"
     inkscape:pagecheckerboard="1"
     inkscape:deskcolor="#505050"
     showgrid="false"
     inkscape:zoom="18.270833"
     inkscape:cx="13.381984"
     inkscape:cy="13.299886"
     inkscape:window-width="3840"
     inkscape:window-height="1009"
     inkscape:window-x="3232"
     inkscape:window-y="1432"
     inkscape:window-maximized="1"
     inkscape:current-layer="svg32347" />
  <path
     style="fill:#5d6bc1;fill-opacity:1;stroke:#5d6bc1;stroke-width:0.163718"
     d="m 26.320335,127.424 c -0.230082,-0.0434 -0.585868,-0.14197 -0.790637,-0.21905 -0.851647,-0.32056 -0.815018,-0.2869 -6.172365,-5.67169 l -5.019087,-5.0448 -0.405455,0.15744 c -0.223001,0.0866 -0.662253,0.21346 -0.976116,0.28193 -0.516729,0.11273 -0.712493,0.12451 -2.071413,0.12465 -1.4234315,1.5e-4 -1.5358983,-0.007 -2.1829125,-0.14651 -2.0128465,-0.43275 -3.512526,-1.23283 -4.9856836,-2.65988 -1.8632823,-1.80496 -2.84645353,-3.81658 -3.09062232,-6.32359 -0.1794707,-1.84272 0.18073598,-3.6077 1.18437122,-5.8033 l 0.1983039,-0.43382 3.0091909,3.04507 3.0091911,3.04507 1.9165485,-1.79956 1.9165478,-1.79956 -3.0881743,-3.09204 -3.0881744,-3.092043 0.394459,-0.198646 c 0.9862848,-0.496685 2.4041628,-0.99803 3.3533428,-1.185701 1.1597239,-0.229301 2.8422419,-0.138919 4.2093559,0.226116 1.681037,0.448858 3.0334,1.228205 4.358279,2.511611 1.87056,1.812003 2.872414,3.843413 3.152042,6.391243 0.07948,0.72412 0.03009,2.47518 -0.08834,3.13272 -0.04866,0.27014 -0.170883,0.73673 -0.271617,1.03688 l -0.183151,0.54573 4.898315,4.91156 c 5.072773,5.08648 5.201954,5.22641 5.549566,6.01131 0.369218,0.83369 0.464526,1.91246 0.244066,2.76256 -0.140877,0.54322 -0.524197,1.28479 -0.898998,1.73917 -0.951791,1.1539 -2.684016,1.81063 -4.080836,1.54713 z m 1.115623,-3.1408 c 0.268264,-0.0745 0.576692,-0.34871 0.701681,-0.62384 0.143926,-0.31681 0.132645,-0.80505 -0.02649,-1.1468 -0.104422,-0.22423 -1.129844,-1.27019 -5.724654,-5.83929 l -5.597444,-5.56612 0.135332,-0.19101 c 0.214962,-0.30339 0.537151,-0.9687 0.719825,-1.48641 0.54386,-1.54133 0.555007,-3.43364 0.02894,-4.91136 -0.845888,-2.37604 -3.341368,-4.45266 -5.846036,-4.864784 -0.618086,-0.101701 -1.214706,-0.150096 -1.214706,-0.09853 0,0.02229 0.946792,1.007234 2.103983,2.188774 1.197622,1.22282 2.154637,2.24476 2.221568,2.37227 0.159695,0.30424 0.157168,0.79297 -0.0058,1.10963 -0.154422,0.30025 -5.6080621,5.43901 -5.9296658,5.58734 -0.2805823,0.1294 -0.7025661,0.12858 -0.9899979,-0.002 -0.1555073,-0.0706 -0.874822,-0.74502 -2.3066049,-2.16262 -1.1443445,-1.133 -2.0887588,-2.05018 -2.0986986,-2.03817 -0.034559,0.0418 0.071524,1.00682 0.1576186,1.43389 0.1980574,0.98248 0.6353594,2.02344 1.1594592,2.76 0.3612414,0.50769 1.1622522,1.32087 1.696295,1.72207 1.1902023,0.89415 2.6753266,1.39012 4.1652394,1.39102 1.284027,7.8e-4 2.686344,-0.372 3.707075,-0.98548 l 0.454179,-0.27297 4.14947,4.13549 c 7.020567,6.99691 7.438352,7.40803 7.597183,7.47591 0.192765,0.0824 0.474451,0.0873 0.74224,0.0129 z"
     id="path33972" />
  <g
     opacity="0.4"
     id="g22463"
     transform="matrix(20,0,0,20,-2428.8026,308.3822)">
    <g
       id="g35091" />
  </g>
</svg>
