<?xml version="1.0" encoding="UTF-8" standalone="no"?>
<svg
   viewBox="0 0 32 32"
   version="1.1"
   id="svg206"
   sodipodi:docname="manage-crown-rounded-active.svg"
   inkscape:version="1.2.1 (9c6d41e410, 2022-07-14)"
   width="32"
   height="32"
   xmlns:inkscape="http://www.inkscape.org/namespaces/inkscape"
   xmlns:sodipodi="http://sodipodi.sourceforge.net/DTD/sodipodi-0.dtd"
   xmlns="http://www.w3.org/2000/svg"
   xmlns:svg="http://www.w3.org/2000/svg">
  <defs
     id="defs210">
    <inkscape:path-effect
       effect="fillet_chamfer"
       id="path-effect280"
       is_visible="true"
       lpeversion="1"
       nodesatellites_param="F,0,0,1,0,0,0,1 @ F,0,0,1,0,0,0,1 @ F,0,1,1,0,1.7514253,0,1 @ F,0,1,1,0,1.7514253,0,1 @ F,0,1,1,0,1.7514253,0,1 @ F,0,1,1,0,1.7514253,0,1 @ F,0,0,1,0,0,0,1 | F,0,0,1,0,0,0,1 @ F,0,1,1,0,1.7514253,0,1 @ F,0,1,1,0,1.7514253,0,1 @ F,0,1,1,0,1.7514253,0,1 @ F,0,1,1,0,1.7514253,0,1 @ F,0,1,1,0,1.7514253,0,1 @ F,0,1,1,0,1.7514253,0,1 @ F,0,0,1,0,0,0,1 | F,0,0,1,0,1.7514253,0,1 @ F,0,1,1,0,1.7514253,0,1 @ F,0,0,1,0,0,0,1 @ F,0,0,1,0,0,0,1 @ F,0,0,1,0,0,0,1 @ F,0,0,1,0,0,0,1"
       unit="px"
       method="auto"
       mode="F"
       radius="0"
       chamfer_steps="1"
       flexible="false"
       use_knot_distance="true"
       apply_no_radius="true"
       apply_with_radius="true"
       only_selected="false"
       hide_knots="false" />
  </defs>
  <sodipodi:namedview
     id="namedview208"
     pagecolor="#505050"
     bordercolor="#ffffff"
     borderopacity="1"
     inkscape:showpageshadow="0"
     inkscape:pageopacity="0"
     inkscape:pagecheckerboard="1"
     inkscape:deskcolor="#505050"
     showgrid="false"
     inkscape:zoom="18.270833"
     inkscape:cx="-23.31585"
     inkscape:cy="12.041049"
     inkscape:window-width="3840"
     inkscape:window-height="1009"
     inkscape:window-x="3232"
     inkscape:window-y="1432"
     inkscape:window-maximized="1"
     inkscape:current-layer="svg206" />
  <g
     opacity="0.4"
     id="g22463"
     transform="translate(-87.275793,8.2242641)">
    <path
       fill="#5d6bc1"
       d="m 91.753243,9.2033527 0.09186,2.8487183 c 0,0 11.191587,-0.351509 11.532587,0.439787 0.341,0.791296 -5.965893,-4.4401787 -5.965893,-4.4401787 0,0 -2.437497,-3.1220752 -4.499104,-3.1257784 -2.440922,-0.00439 -1.159451,4.2774529 -1.15945,4.2774518 z"
       id="path22461"
       style="fill:#5d6bc1;fill-opacity:1;stroke-width:1.04185"
       sodipodi:nodetypes="ccscsc" />
    <path
       fill="#5d6bc1"
       d="m 107.18161,9.6878211 -3.74659,3.1717709 c 0,0 11.65273,-0.925889 11.92314,-0.196888 0.27041,0.729 -1.47577,-2.393928 -1.47577,-2.393928 0,0 0.93163,-5.9960142 -0.70323,-5.9994259 -1.93565,-0.00404 -5.99755,5.418472 -5.99755,5.418471 z m 4.83661,0.4778809"
       id="path22461-8"
       style="fill:#5d6bc1;fill-opacity:1;stroke-width:0.890507"
       sodipodi:nodetypes="ccscsc" />
    <path
       fill="#5d6bc1"
       d="m 97.97942,7.5532716 -4.177238,5.0873924 c 0,0 19.565588,-0.706961 19.906588,0.02204 0.341,0.729 -4.2692,-5.3494587 -4.2692,-5.3494587 0,0 -3.47741,-6.81699434 -5.53901,-6.82040604 -2.44092,-0.00404 -5.92114,7.06043334 -5.92114,7.06043234 z m 7.83726,3.3241804 m 19.70353,-1.9703532"
       id="path22461-6"
       style="fill:#5d6bc1;fill-opacity:1"
       sodipodi:nodetypes="ccscsc" />
  </g>
  <path
     d="m 16.0375,9.35 5.2125,9.035 3.910676,-3.519608 a 0.58097304,0.58097304 29.66136 0 1 0.958341,0.545772 l -0.529284,2.646422 A 2.1363954,2.1363954 140.65497 0 1 23.494825,19.775 H 8.5801753 A 2.1363954,2.1363954 39.345034 0 1 6.4852672,18.057586 L 5.9559828,15.411164 A 0.58097304,0.58097304 150.33864 0 1 6.9143242,14.865392 L 10.825,18.385 16.0375,9.35 m 0,-6.95 -5.198758,8.912156 A 1.4178397,1.4178397 171.26506 0 1 8.6603,11.646864 L 1.6959498,5.3156363 A 0.59319043,0.59319043 150.98442 0 0 0.71330448,5.8606748 L 3.5616955,21.526825 A 2.0985801,2.0985801 39.847577 0 0 5.6264253,23.25 l 20.8221497,0 a 2.0985801,2.0985801 140.15242 0 0 2.064729,-1.723175 L 31.361696,5.8606748 A 0.59319044,0.59319044 29.015579 0 0 30.37905,5.3156362 L 23.4147,11.646864 A 1.4178397,1.4178397 8.7349371 0 1 21.236258,11.312156 L 16.0375,2.4 M 26.448575,26.725 H 5.6264253 A 1.7444765,1.7444765 135.22868 0 0 3.875,28.4625 C 3.875,29.505 4.57,30.2 5.6125,30.2 h 20.85 C 27.505,30.2 28.2,29.505 28.2,28.4625 A 1.7444765,1.7444765 44.771317 0 0 26.448575,26.725 Z"
     id="path220"
     style="fill:#5d6bc1;fill-opacity:1;stroke-width:1.7375"
     inkscape:path-effect="#path-effect280"
     inkscape:original-d="M 16.0375,9.35 21.25,18.385 26.4625,13.69375 25.24625,19.775 H 6.82875 L 5.6125,13.69375 10.825,18.385 16.0375,9.35 m 0,-6.95 L 9.9562498,12.825 0.4,4.1375001 3.875,23.25 H 28.2 L 31.675,4.1375001 22.11875,12.825 16.0375,2.4 M 28.2,26.725 H 3.875 v 1.7375 C 3.875,29.505 4.57,30.2 5.6125,30.2 h 20.85 C 27.505,30.2 28.2,29.505 28.2,28.4625 Z" />
</svg>
