<?xml version="1.0" encoding="utf-8"?>
<!-- Generator: Adobe Illustrator 26.3.1, SVG Export Plug-In . SVG Version: 6.00 Build 0)  -->
<svg version="1.1" xmlns="http://www.w3.org/2000/svg" xmlns:xlink="http://www.w3.org/1999/xlink" x="0px" y="0px"
	 viewBox="0 0 32 32" enable-background="new 0 0 32 32" xml:space="preserve">
<g id="Layer_1">
	<g>
		<g>
			<path fill="#59B365" d="M16,31.637c-0.621,0-1.125-0.504-1.125-1.125v-7.178c0-0.621,0.504-1.125,1.125-1.125
				s1.125,0.504,1.125,1.125v7.178C17.125,31.133,16.621,31.637,16,31.637z"/>
		</g>
		<g>
			<path fill="#59B365" d="M26.261,27.387c-0.288,0-0.576-0.109-0.796-0.329l-5.075-5.076c-0.439-0.439-0.438-1.152,0-1.592
				c0.439-0.439,1.152-0.439,1.592,0l5.075,5.076c0.439,0.439,0.438,1.152,0,1.592C26.837,27.277,26.549,27.387,26.261,27.387z"/>
		</g>
		<g>
			<path fill="#59B365" d="M30.512,17.125h-7.179c-0.621,0-1.125-0.504-1.125-1.125s0.504-1.125,1.125-1.125h7.179
				c0.621,0,1.125,0.504,1.125,1.125S31.133,17.125,30.512,17.125z"/>
		</g>
		<g>
			<path fill="#59B365" d="M21.186,11.939c-0.288,0-0.576-0.109-0.796-0.329c-0.438-0.439-0.438-1.152,0-1.592l5.075-5.075
				c0.439-0.439,1.152-0.439,1.592,0c0.438,0.439,0.438,1.152,0,1.592l-5.075,5.075C21.762,11.83,21.474,11.939,21.186,11.939z"/>
		</g>
		<g>
			<path fill="#59B365" d="M16,9.792c-0.621,0-1.125-0.504-1.125-1.125V1.488c0-0.621,0.504-1.125,1.125-1.125
				s1.125,0.504,1.125,1.125v7.179C17.125,9.288,16.621,9.792,16,9.792z"/>
		</g>
		<g>
			<path fill="#59B365" d="M10.814,11.939c-0.288,0-0.576-0.109-0.796-0.329L4.942,6.535c-0.438-0.439-0.439-1.152,0-1.592
				s1.152-0.439,1.592,0l5.076,5.075c0.438,0.439,0.439,1.152,0,1.592C11.391,11.829,11.103,11.939,10.814,11.939z"/>
		</g>
		<g>
			<path fill="#59B365" d="M8.666,17.125H1.488c-0.621,0-1.125-0.504-1.125-1.125s0.504-1.125,1.125-1.125h7.178
				c0.621,0,1.125,0.504,1.125,1.125S9.287,17.125,8.666,17.125z"/>
		</g>
		<g>
			<path fill="#59B365" d="M5.738,27.387c-0.288,0-0.576-0.109-0.796-0.329c-0.438-0.439-0.438-1.152,0-1.592l5.076-5.076
				c0.439-0.439,1.152-0.439,1.592,0c0.438,0.439,0.438,1.152,0,1.592l-5.076,5.076C6.314,27.277,6.026,27.387,5.738,27.387z"/>
		</g>
	</g>
</g>
<g id="Layer_2">
</g>
</svg>
