<?xml version="1.0" encoding="utf-8"?>
<!-- Generator: Adobe Illustrator 26.3.1, SVG Export Plug-In . SVG Version: 6.00 Build 0)  -->
<svg version="1.1" xmlns="http://www.w3.org/2000/svg" xmlns:xlink="http://www.w3.org/1999/xlink" x="0px" y="0px"
	 viewBox="0 0 32 32" enable-background="new 0 0 32 32" xml:space="preserve">
<g id="Layer_1">
	<g>
		<g opacity="0.4">
			<path fill="#5D6BC1" d="M26.465,30.512H5.535c-2.235,0-4.047-1.812-4.047-4.047V5.999c0-2.235,1.812-4.047,4.047-4.047h20.931
				c2.235,0,4.047,1.812,4.047,4.047v20.466C30.512,28.7,28.7,30.512,26.465,30.512z"/>
		</g>
		<g>
			<path fill="#5D6BC1" d="M26.414,31.637H5.586c-2.88,0-5.224-2.344-5.224-5.224V5.586c0-2.88,2.344-5.223,5.224-5.223h20.827
				c2.88,0,5.224,2.343,5.224,5.223v20.827C31.637,29.293,29.293,31.637,26.414,31.637z M5.586,2.613
				c-1.64,0-2.974,1.334-2.974,2.973v20.827c0,1.64,1.334,2.974,2.974,2.974h20.827c1.64,0,2.974-1.334,2.974-2.974V5.586
				c0-1.639-1.334-2.973-2.974-2.973H5.586z"/>
		</g>
		<g>
			<path fill="#5D6BC1" d="M16,23.363c-0.621,0-1.125-0.504-1.125-1.125V9.762c0-0.621,0.504-1.125,1.125-1.125
				s1.125,0.504,1.125,1.125v12.477C17.125,22.859,16.622,23.363,16,23.363z"/>
		</g>
		<g>
			<path fill="#5D6BC1" d="M22.239,17.125H9.762c-0.621,0-1.125-0.504-1.125-1.125s0.504-1.125,1.125-1.125h12.477
				c0.621,0,1.125,0.504,1.125,1.125S22.86,17.125,22.239,17.125z"/>
		</g>
	</g>
</g>
<g id="Layer_2">
</g>
</svg>
