<?xml version="1.0" encoding="utf-8"?>
<!-- Generator: Adobe Illustrator 26.3.1, SVG Export Plug-In . SVG Version: 6.00 Build 0)  -->
<svg version="1.1" xmlns="http://www.w3.org/2000/svg" xmlns:xlink="http://www.w3.org/1999/xlink" x="0px" y="0px"
	 viewBox="0 0 31.274 31.273" enable-background="new 0 0 31.274 31.273" xml:space="preserve">
<g id="Layer_1">
	<g>
		<g>
			<path fill="#FFFFFF" d="M1.125,10.749C0.504,10.749,0,10.245,0,9.624V5.208C0,2.336,2.336,0,5.208,0h4.417
				c0.621,0,1.125,0.504,1.125,1.125S10.246,2.25,9.625,2.25H5.208c-1.631,0-2.958,1.327-2.958,2.958v4.416
				C2.25,10.245,1.746,10.749,1.125,10.749z"/>
		</g>
		<g>
			<path fill="#FFFFFF" d="M30.149,10.749c-0.621,0-1.125-0.504-1.125-1.125V5.208c0-1.631-1.327-2.958-2.958-2.958H21.65
				c-0.621,0-1.125-0.504-1.125-1.125S21.029,0,21.65,0h4.416c2.872,0,5.208,2.336,5.208,5.208v4.416
				C31.274,10.245,30.771,10.749,30.149,10.749z"/>
		</g>
		<g>
			<path fill="#FFFFFF" d="M26.066,31.273H21.65c-0.621,0-1.125-0.504-1.125-1.125s0.504-1.125,1.125-1.125h4.416
				c1.631,0,2.958-1.326,2.958-2.957v-4.417c0-0.621,0.504-1.125,1.125-1.125s1.125,0.504,1.125,1.125v4.417
				C31.274,28.938,28.938,31.273,26.066,31.273z"/>
		</g>
		<g>
			<path fill="#FFFFFF" d="M9.625,31.273H5.208c-2.871,0-5.207-2.336-5.207-5.207L0,21.649c0-0.621,0.504-1.125,1.125-1.125
				s1.125,0.504,1.125,1.125l0.001,4.417c0,1.631,1.326,2.957,2.957,2.957h4.417c0.621,0,1.125,0.504,1.125,1.125
				S10.246,31.273,9.625,31.273z"/>
		</g>
		<g opacity="0.4">
			<path fill="#FFFFFF" d="M24.76,13.842h-6.13c-0.621,0-1.125-0.504-1.125-1.125V6.586c0-0.621,0.504-1.125,1.125-1.125h6.13
				c0.621,0,1.125,0.504,1.125,1.125v6.131C25.885,13.338,25.381,13.842,24.76,13.842z M19.755,11.592h3.88V7.711h-3.88V11.592z"/>
		</g>
		<g opacity="0.4">
			<path fill="#FFFFFF" d="M24.75,25.737h-6.131c-0.621,0-1.125-0.504-1.125-1.125v-6.131c0-0.621,0.504-1.125,1.125-1.125h6.131
				c0.621,0,1.125,0.504,1.125,1.125v6.131C25.875,25.233,25.371,25.737,24.75,25.737z M19.744,23.487h3.881v-3.881h-3.881V23.487z"
				/>
		</g>
		<g opacity="0.4">
			<path fill="#FFFFFF" d="M12.563,13.842H6.433c-0.621,0-1.125-0.504-1.125-1.125V6.586c0-0.621,0.504-1.125,1.125-1.125h6.131
				c0.621,0,1.125,0.504,1.125,1.125v6.131C13.688,13.338,13.185,13.842,12.563,13.842z M7.558,11.592h3.881V7.711H7.558V11.592z"/>
		</g>
		<g>
			<path fill="#FFFFFF" d="M12.563,25.737h-1.887c-0.621,0-1.125-0.504-1.125-1.125v-1.888c0-0.621,0.504-1.125,1.125-1.125h1.887
				c0.621,0,1.125,0.504,1.125,1.125v1.888C13.688,25.233,13.185,25.737,12.563,25.737z"/>
		</g>
		<g>
			<path fill="#FFFFFF" d="M8.32,21.494H6.433c-0.621,0-1.125-0.504-1.125-1.125v-1.888c0-0.621,0.504-1.125,1.125-1.125H8.32
				c0.621,0,1.125,0.504,1.125,1.125v1.888C9.445,20.99,8.941,21.494,8.32,21.494z"/>
		</g>
	</g>
</g>
<g id="Layer_2">
</g>
</svg>
