<?xml version="1.0" encoding="utf-8"?>
<!-- Generator: Adobe Illustrator 26.3.1, SVG Export Plug-In . SVG Version: 6.00 Build 0)  -->
<svg version="1.1" xmlns="http://www.w3.org/2000/svg" xmlns:xlink="http://www.w3.org/1999/xlink" x="0px" y="0px"
	 viewBox="0 0 32 32" enable-background="new 0 0 32 32" xml:space="preserve">
<g id="Layer_1">
	<g>
		<g>
			<g>
				<path fill="#5D6BC1" d="M28.568,28.009c-0.191,0-0.385-0.049-0.562-0.151c-0.538-0.312-0.722-0.999-0.41-1.537
					c1.172-2.024,1.791-4.34,1.791-6.693c0-7.382-6.005-13.387-13.387-13.387S2.613,12.246,2.613,19.627
					c0,2.354,0.619,4.668,1.79,6.693c0.312,0.538,0.127,1.227-0.41,1.537c-0.54,0.311-1.228,0.127-1.537-0.41
					c-1.369-2.368-2.093-5.072-2.093-7.82C0.363,11.005,7.378,3.991,16,3.991s15.637,7.015,15.637,15.637
					c0,2.749-0.724,5.453-2.094,7.82C29.335,27.808,28.957,28.009,28.568,28.009z"/>
			</g>
			<g>
				<path fill="#5D6BC1" d="M16,8.698c-0.621,0-1.125-0.504-1.125-1.125V5.116c0-0.621,0.504-1.125,1.125-1.125
					s1.125,0.504,1.125,1.125v2.457C17.125,8.194,16.621,8.698,16,8.698z"/>
			</g>
			<g>
				<path fill="#5D6BC1" d="M5.562,14.724c-0.191,0-0.385-0.049-0.562-0.151l-2.128-1.229c-0.538-0.311-0.723-0.998-0.411-1.536
					c0.311-0.539,1.001-0.72,1.536-0.411l2.128,1.229c0.538,0.311,0.723,0.998,0.411,1.536C6.328,14.523,5.95,14.724,5.562,14.724z"
					/>
			</g>
			<g>
				<path fill="#5D6BC1" d="M3.436,28.004c-0.389,0-0.767-0.201-0.976-0.562c-0.311-0.538-0.126-1.227,0.412-1.537L5,24.676
					c0.538-0.309,1.227-0.127,1.537,0.412c0.311,0.538,0.126,1.227-0.412,1.537l-2.128,1.229C3.82,27.956,3.626,28.004,3.436,28.004
					z"/>
			</g>
			<g>
				<path fill="#5D6BC1" d="M28.564,28.004c-0.191,0-0.385-0.049-0.562-0.15l-2.128-1.229c-0.538-0.311-0.723-0.999-0.412-1.537
					c0.312-0.539,1.004-0.719,1.537-0.412l2.128,1.229c0.538,0.311,0.723,0.999,0.412,1.537
					C29.331,27.803,28.953,28.004,28.564,28.004z"/>
			</g>
			<g>
				<path fill="#5D6BC1" d="M26.438,14.724c-0.389,0-0.767-0.201-0.975-0.562c-0.312-0.538-0.127-1.226,0.411-1.536l2.128-1.229
					c0.535-0.312,1.226-0.129,1.536,0.411c0.312,0.538,0.127,1.226-0.411,1.536L27,14.573C26.823,14.675,26.63,14.724,26.438,14.724
					z"/>
			</g>
		</g>
		<g>
			<path fill="#231F20" d="M16,23.803c-2.304,0-4.179-1.875-4.179-4.179s1.875-4.179,4.179-4.179s4.179,1.875,4.179,4.179
				S18.304,23.803,16,23.803z M16,17.696c-1.063,0-1.929,0.865-1.929,1.929s0.865,1.929,1.929,1.929s1.929-0.865,1.929-1.929
				S17.063,17.696,16,17.696z"/>
		</g>
		<g>
			<path fill="#231F20" d="M26.413,20.75h-7.359c-0.621,0-1.125-0.504-1.125-1.125s0.504-1.125,1.125-1.125h7.359
				c0.621,0,1.125,0.504,1.125,1.125S27.034,20.75,26.413,20.75z"/>
		</g>
	</g>
</g>
<g id="Layer_2">
</g>
</svg>
