<?xml version="1.0" encoding="utf-8"?>
<!-- Generator: Adobe Illustrator 26.3.1, SVG Export Plug-In . SVG Version: 6.00 Build 0)  -->
<svg version="1.1" xmlns="http://www.w3.org/2000/svg" xmlns:xlink="http://www.w3.org/1999/xlink" x="0px" y="0px"
	 viewBox="0 0 32 32" enable-background="new 0 0 32 32" xml:space="preserve">
<g id="Layer_1">
	<g>
		<g>
			<path fill="#59B365" d="M19.81,31.036H2.088c-0.299,0-0.585-0.118-0.796-0.329s-0.329-0.498-0.329-0.796l0.001-17.723
				c0-0.621,0.504-1.125,1.125-1.125l0,0c0.621,0,1.125,0.504,1.125,1.125L3.213,28.786H19.81c0.621,0,1.125,0.504,1.125,1.125
				S20.431,31.036,19.81,31.036z"/>
		</g>
		<g opacity="0.4">
			<path fill="#59B365" d="M2.088,31.036c-0.288,0-0.576-0.109-0.796-0.329c-0.438-0.439-0.438-1.152,0-1.592L29.117,1.293
				c0.439-0.439,1.152-0.439,1.592,0c0.438,0.439,0.438,1.152,0,1.592L2.883,30.707C2.664,30.927,2.376,31.036,2.088,31.036z"/>
		</g>
	</g>
</g>
<g id="Layer_2">
</g>
</svg>
