<?xml version="1.0" encoding="utf-8"?>
<!-- Generator: Adobe Illustrator 26.3.1, SVG Export Plug-In . SVG Version: 6.00 Build 0)  -->
<svg version="1.1" xmlns="http://www.w3.org/2000/svg" xmlns:xlink="http://www.w3.org/1999/xlink" x="0px" y="0px"
	 viewBox="0 0 32 32" enable-background="new 0 0 32 32" xml:space="preserve">
<g id="Layer_1">
	<g>
		<path fill="#3D99DA" d="M18.613,12.51c-0.966,1.594-1.987,3.665-2.709,6.141c-0.68-2.316-1.594-4.282-2.486-5.822
			c-1.434-2.497-3.07-1.211-1.699,1.232c0.876,1.565,1.783,3.567,2.396,5.929c0.21,0.808,0.946,1.37,1.78,1.37h0
			c0.83,0,1.567-0.553,1.777-1.356c0.667-2.539,1.679-4.661,2.63-6.272C21.63,11.501,20.005,10.205,18.613,12.51z"/>
	</g>
	<g>
		<path fill="#89DA4B" d="M22.071,3.988c-0.059,0-0.117,0-0.177,0.004c0.25,0.829,0.326,1.701,0.223,2.562
			c-0.103,0.86-0.384,1.689-0.823,2.436c-0.44,0.746-1.029,1.394-1.731,1.901c-0.702,0.508-1.502,0.864-2.348,1.048
			c0.443,0.862,1.107,1.591,1.924,2.111c0.818,0.52,1.759,0.813,2.727,0.849c0.968,0.036,1.929-0.187,2.782-0.646
			s1.57-1.136,2.075-1.963c0.505-0.827,0.78-1.774,0.798-2.742c0.018-0.969-0.223-1.925-0.697-2.77s-1.165-1.548-2.001-2.038
			c-0.836-0.489-1.788-0.747-2.757-0.747L22.071,3.988z"/>
	</g>
	<g>
		<path fill="#89DA4B" d="M9.611,5.806C9.61,5.192,9.699,4.58,9.876,3.992c-0.059,0-0.117-0.004-0.177-0.004
			C8.73,3.987,7.779,4.245,6.942,4.734C6.105,5.224,5.414,5.927,4.94,6.772C4.465,7.617,4.224,8.574,4.242,9.543
			c0.018,0.969,0.293,1.916,0.798,2.743s1.221,1.505,2.075,1.964c0.854,0.459,1.815,0.681,2.783,0.646s1.91-0.329,2.728-0.85
			c0.818-0.52,1.482-1.249,1.924-2.112c-1.399-0.305-2.651-1.079-3.55-2.194C10.103,8.626,9.612,7.237,9.611,5.806z"/>
	</g>
	<g>
		
			<ellipse transform="matrix(0.5586 -0.8294 0.8294 0.5586 2.1959 15.7382)" fill="#89DA4B" cx="15.886" cy="5.806" rx="5.455" ry="5.455"/>
	</g>
	<g>
		<path fill="#5D6BC1" d="M28.292,21.335h-6.308c-0.621,0-1.125-0.504-1.125-1.125s0.504-1.125,1.125-1.125h6.308
			c0.621,0,1.125,0.504,1.125,1.125S28.913,21.335,28.292,21.335z"/>
	</g>
	<g>
		<path fill="#5D6BC1" d="M10.016,21.335H3.708c-0.621,0-1.125-0.504-1.125-1.125s0.504-1.125,1.125-1.125h6.308
			c0.621,0,1.125,0.504,1.125,1.125S10.637,21.335,10.016,21.335z"/>
	</g>
	<g>
		<path fill="#5D6BC1" d="M28.292,26.492H3.708c-0.621,0-1.125-0.504-1.125-1.125s0.504-1.125,1.125-1.125h24.583
			c0.621,0,1.125,0.504,1.125,1.125S28.913,26.492,28.292,26.492z"/>
	</g>
	<g>
		<path fill="#5D6BC1" d="M28.292,31.649H3.708c-0.621,0-1.125-0.504-1.125-1.125s0.504-1.125,1.125-1.125h24.583
			c0.621,0,1.125,0.504,1.125,1.125S28.913,31.649,28.292,31.649z"/>
	</g>
</g>
<g id="Layer_2">
</g>
</svg>
