<?xml version="1.0" encoding="utf-8"?>
<!-- Generator: Adobe Illustrator 26.3.1, SVG Export Plug-In . SVG Version: 6.00 Build 0)  -->
<svg version="1.1" xmlns="http://www.w3.org/2000/svg" xmlns:xlink="http://www.w3.org/1999/xlink" x="0px" y="0px"
	 viewBox="0 0 32 32" enable-background="new 0 0 32 32" xml:space="preserve">
<g id="Layer_1">
	<g>
		<g>
			<path fill="#3D99DA" d="M22.534,26.333c-0.213,0-0.418-0.085-0.568-0.235c-0.151-0.151-0.235-0.355-0.235-0.568
				c0-4.51,1.54-8.074,2.928-10.372c1.088-1.799,2.355-0.787,1.325,0.949c-1.257,2.121-2.645,5.378-2.645,9.423
				c0,0.213-0.085,0.418-0.236,0.568C22.951,26.248,22.747,26.333,22.534,26.333z"/>
		</g>
		<g>
			<path fill="#3D99DA" d="M22.534,26.333c-0.213,0-0.418-0.085-0.568-0.235c-0.151-0.151-0.235-0.355-0.235-0.568
				c0-3.886-1.255-7.045-2.447-9.169c-1.066-1.9,0.203-2.909,1.326-0.96c1.323,2.301,2.732,5.775,2.732,10.126
				c0,0.106-0.021,0.211-0.061,0.309c-0.041,0.098-0.1,0.187-0.175,0.262c-0.075,0.075-0.164,0.134-0.262,0.175
				C22.745,26.313,22.64,26.333,22.534,26.333z"/>
		</g>
		<g>
			<path fill="#89DA4B" d="M27.36,8.505c-0.046,0-0.092,0-0.138,0.003c0.195,0.647,0.254,1.327,0.174,1.998
				c-0.081,0.671-0.299,1.318-0.642,1.9c-0.343,0.582-0.803,1.087-1.35,1.483c-0.548,0.396-1.171,0.674-1.832,0.817
				c0.345,0.673,0.864,1.241,1.501,1.647c0.638,0.406,1.372,0.634,2.128,0.662c0.755,0.028,1.505-0.146,2.171-0.504
				s1.225-0.886,1.619-1.532c0.394-0.645,0.609-1.384,0.623-2.14s-0.174-1.502-0.544-2.161c-0.37-0.659-0.909-1.208-1.561-1.59
				c-0.652-0.382-1.395-0.583-2.151-0.583L27.36,8.505z"/>
		</g>
		<g>
			<path fill="#89DA4B" d="M17.639,9.923c-0.001-0.479,0.069-0.956,0.207-1.415c-0.046,0-0.092-0.003-0.138-0.003
				c-0.756,0-1.499,0.201-2.152,0.582c-0.653,0.382-1.192,0.931-1.562,1.59c-0.37,0.659-0.558,1.405-0.544,2.162
				c0.014,0.756,0.229,1.495,0.623,2.14c0.394,0.645,0.953,1.174,1.619,1.532c0.666,0.358,1.416,0.532,2.171,0.504
				s1.49-0.257,2.128-0.663c0.638-0.406,1.156-0.975,1.501-1.648c-1.091-0.238-2.068-0.842-2.769-1.712
				C18.022,12.123,17.639,11.04,17.639,9.923z"/>
		</g>
		<g>
			
				<ellipse transform="matrix(0.3879 -0.9217 0.9217 0.3879 4.6461 26.8423)" fill="#89DA4B" cx="22.534" cy="9.923" rx="4.256" ry="4.256"/>
		</g>
		<g>
			<path fill="#FFFFFF" d="M9.294,14.744H1.512c-0.621,0-1.125-0.504-1.125-1.125s0.504-1.125,1.125-1.125h7.782
				c0.621,0,1.125,0.504,1.125,1.125S9.916,14.744,9.294,14.744z"/>
		</g>
		<g>
			<path fill="#FFFFFF" d="M13.024,20.424H1.512c-0.621,0-1.125-0.504-1.125-1.125s0.504-1.125,1.125-1.125h11.512
				c0.621,0,1.125,0.504,1.125,1.125S13.645,20.424,13.024,20.424z"/>
		</g>
		<g>
			<path fill="#FFFFFF" d="M17.278,26.103H1.512c-0.621,0-1.125-0.504-1.125-1.125s0.504-1.125,1.125-1.125h15.766
				c0.621,0,1.125,0.504,1.125,1.125S17.899,26.103,17.278,26.103z"/>
		</g>
	</g>
</g>
<g id="Layer_2">
</g>
</svg>
