<?xml version="1.0" encoding="utf-8"?>
<!-- Generator: Adobe Illustrator 26.3.1, SVG Export Plug-In . SVG Version: 6.00 Build 0)  -->
<svg version="1.1" xmlns="http://www.w3.org/2000/svg" xmlns:xlink="http://www.w3.org/1999/xlink" x="0px" y="0px"
	 viewBox="0 0 32 32" enable-background="new 0 0 32 32" xml:space="preserve">
<g id="Layer_1">
	<g opacity="0.4">
		<path d="M16,31.637c-8.622,0-15.637-7.014-15.638-15.636C0.363,7.378,7.377,0.363,16,0.363c8.621,0,15.636,7.015,15.637,15.637
			C31.637,24.622,24.623,31.637,16,31.637z M16,2.613c-7.382,0-13.388,6.006-13.388,13.388C2.614,23.382,8.62,29.387,16,29.387
			c7.382,0,13.387-6.005,13.387-13.387C29.386,8.618,23.381,2.613,16,2.613z"/>
	</g>
	<g>
		<path d="M17.986,22.679c-0.288,0-0.576-0.109-0.796-0.329l-5.549-5.549c-0.438-0.439-0.438-1.152,0-1.592l5.552-5.552
			c0.439-0.439,1.152-0.439,1.592,0c0.438,0.439,0.438,1.152,0,1.592l-4.757,4.756l4.754,4.753c0.438,0.439,0.438,1.152,0,1.592
			C18.562,22.569,18.274,22.679,17.986,22.679z"/>
	</g>
</g>
<g id="Layer_2">
</g>
</svg>
