<svg enable-background="new 0 0 32 32" viewBox="0 0 32 32" xmlns="http://www.w3.org/2000/svg"><path d="m16 31.637c-8.622 0-15.637-7.015-15.637-15.637s7.015-15.637 15.637-15.637 15.637 7.015 15.637 15.637-7.015 15.637-15.637 15.637zm0-29.024c-7.382 0-13.387 6.005-13.387 13.387s6.005 13.387 13.387 13.387 13.387-6.005 13.387-13.387-6.005-13.387-13.387-13.387z" opacity=".4"/><path d="m21.412 22.537c-.288 0-.576-.109-.796-.329l-10.824-10.824c-.438-.439-.438-1.152 0-1.592.439-.439 1.152-.439 1.592 0l10.824 10.824c.438.439.438 1.152 0 1.592-.22.22-.508.329-.796.329z"/><path d="m10.588 22.537c-.288 0-.576-.109-.796-.329-.438-.439-.438-1.152 0-1.592l10.824-10.824c.439-.439 1.152-.439 1.592 0 .438.439.438 1.152 0 1.592l-10.824 10.824c-.22.22-.508.329-.796.329z"/></svg>