<?xml version="1.0" encoding="utf-8"?>
<!-- Generator: Adobe Illustrator 26.3.1, SVG Export Plug-In . SVG Version: 6.00 Build 0)  -->
<svg version="1.1" xmlns="http://www.w3.org/2000/svg" xmlns:xlink="http://www.w3.org/1999/xlink" x="0px" y="0px"
	 viewBox="0 0 32 32" enable-background="new 0 0 32 32" xml:space="preserve">
<g id="Layer_1">
	<g>
		<g opacity="0.4">
			<path d="M16,26.355c-6.476,0-11.963-4.911-14.657-7.839l0,0c-1.324-1.439-1.324-3.609,0-5.049C4.037,10.539,9.523,5.628,16,5.628
				c6.479,0,11.964,4.911,14.657,7.839c1.324,1.439,1.324,3.609,0,5.049C27.964,21.444,22.479,26.355,16,26.355z M16,7.878
				c-5.617,0-10.557,4.456-13.001,7.112c-0.525,0.57-0.525,1.432,0,2.002l0,0c2.444,2.656,7.384,7.112,13.001,7.112
				c5.62,0,10.558-4.456,13.001-7.112c0.525-0.57,0.525-1.432,0-2.002C26.558,12.334,21.62,7.878,16,7.878z"/>
		</g>
		<g opacity="0.4">
			<path d="M16,21.549c-3.064,0-5.558-2.493-5.558-5.558s2.493-5.558,5.558-5.558s5.558,2.493,5.558,5.558S19.064,21.549,16,21.549z
				 M16,12.684c-1.824,0-3.308,1.483-3.308,3.308s1.483,3.308,3.308,3.308s3.308-1.483,3.308-3.308S17.824,12.684,16,12.684z"/>
		</g>
		<g>
			<path d="M2.681,30.436c-0.288,0-0.576-0.109-0.796-0.329c-0.438-0.439-0.438-1.152,0-1.592L28.506,1.894
				c0.439-0.439,1.152-0.439,1.592,0c0.438,0.439,0.438,1.152,0,1.592L3.477,30.107C3.257,30.326,2.969,30.436,2.681,30.436z"/>
		</g>
	</g>
</g>
<g id="Layer_2">
</g>
</svg>
