<?xml version="1.0" encoding="utf-8"?>
<!-- Generator: Adobe Illustrator 26.3.1, SVG Export Plug-In . SVG Version: 6.00 Build 0)  -->
<svg version="1.1" xmlns="http://www.w3.org/2000/svg" xmlns:xlink="http://www.w3.org/1999/xlink" x="0px" y="0px"
	 viewBox="0 0 32 32" enable-background="new 0 0 32 32" xml:space="preserve">
<g id="Layer_1">
	<g>
		<g opacity="0.4">
			<path d="M27.577,5.492c-2.95-3.26-7.17-5.13-11.58-5.13c-8.62,0-15.63,7.02-15.63,15.64c0,2.22,0.45,4.36,1.34,6.36l-0.8,7.49
				c-0.03,0.35,0.09,0.69,0.34,0.93c0.26,0.25,0.61,0.36,0.95,0.3l6.89-1.05c2.17,1.06,4.5,1.6,6.91,1.6
				c4.41,0,8.63-1.86,11.58-5.12c2.62-2.88,4.06-6.61,4.06-10.51C31.636,12.102,30.197,8.362,27.577,5.492z M25.907,25.002
				c-2.521,2.79-6.13,4.38-9.91,4.38c-2.17,0-4.26-0.51-6.2-1.52c-0.16-0.08-0.34-0.12-0.52-0.12c-0.06,0-0.11,0-0.17,0.01
				l-5.81,0.89l0.68-6.35c0.02-0.21-0.01-0.41-0.1-0.6c-0.84-1.78-1.26-3.69-1.26-5.69c0-7.38,6-13.39,13.38-13.39
				c3.78,0,7.39,1.6,9.91,4.39c2.25,2.46,3.479,5.66,3.479,9C29.386,19.342,28.157,22.532,25.907,25.002z"/>
		</g>
		<g>
			<path d="M17.747,16.002c0,0.96-0.78,1.74-1.75,1.74c-0.96,0-1.74-0.78-1.74-1.74s0.78-1.75,1.74-1.75
				C16.966,14.252,17.747,15.042,17.747,16.002z"/>
		</g>
		<g>
			<path d="M10.006,16.002c0,0.96-0.78,1.74-1.74,1.74s-1.75-0.78-1.75-1.74s0.79-1.75,1.75-1.75S10.006,15.042,10.006,16.002z"/>
		</g>
		<g>
			<path d="M25.477,16.002c0,0.96-0.78,1.74-1.74,1.74c-0.96,0-1.75-0.78-1.75-1.74s0.79-1.75,1.75-1.75
				C24.697,14.252,25.477,15.042,25.477,16.002z"/>
		</g>
	</g>
</g>
<g id="Layer_2">
</g>
</svg>
