<?xml version="1.0" encoding="utf-8"?>
<!-- Generator: Adobe Illustrator 26.3.1, SVG Export Plug-In . SVG Version: 6.00 Build 0)  -->
<svg version="1.1" xmlns="http://www.w3.org/2000/svg" xmlns:xlink="http://www.w3.org/1999/xlink" x="0px" y="0px"
	 viewBox="0 0 32 32" enable-background="new 0 0 32 32" xml:space="preserve">
<g id="Layer_1">
	<g>
		<g>
			<path d="M16,31.637C7.378,31.637,0.363,24.622,0.363,16S7.378,0.363,16,0.363S31.637,7.378,31.637,16S24.622,31.637,16,31.637z
				 M16,2.613C8.618,2.613,2.613,8.618,2.613,16S8.618,29.387,16,29.387S29.387,23.382,29.387,16S23.382,2.613,16,2.613z"/>
		</g>
		<g opacity="0.4">
			<g>
				<path d="M16,31.637c-4.893,0-8.726-6.868-8.726-15.637S11.107,0.363,16,0.363S24.726,7.231,24.726,16S20.893,31.637,16,31.637z
					 M16,2.613c-3.51,0-6.476,6.13-6.476,13.387S12.49,29.387,16,29.387s6.476-6.13,6.476-13.387S19.51,2.613,16,2.613z"/>
			</g>
			<g>
				<path d="M30.512,17.125H1.488c-0.621,0-1.125-0.504-1.125-1.125s0.504-1.125,1.125-1.125h29.023
					c0.621,0,1.125,0.504,1.125,1.125S31.133,17.125,30.512,17.125z"/>
			</g>
			<g>
				<path d="M16,31.637c-0.621,0-1.125-0.504-1.125-1.125V1.488c0-0.621,0.504-1.125,1.125-1.125s1.125,0.504,1.125,1.125v29.023
					C17.125,31.133,16.621,31.637,16,31.637z"/>
			</g>
		</g>
	</g>
</g>
<g id="Layer_2">
</g>
</svg>
