<?xml version="1.0" encoding="utf-8"?>
<!-- Generator: Adobe Illustrator 26.3.1, SVG Export Plug-In . SVG Version: 6.00 Build 0)  -->
<svg version="1.1" xmlns="http://www.w3.org/2000/svg" xmlns:xlink="http://www.w3.org/1999/xlink" x="0px" y="0px"
	 viewBox="0 0 32 32" enable-background="new 0 0 32 32" xml:space="preserve">
<g id="Layer_1">
	<g>
		<g>
			<path d="M22.463,31.637H9.538c-2.705,0-4.905-2.2-4.905-4.904v-9.812c0-2.704,2.2-4.904,4.905-4.904h12.926
				c2.704,0,4.904,2.2,4.904,4.904v9.812C27.368,29.437,25.167,31.637,22.463,31.637z M9.538,14.267
				c-1.464,0-2.655,1.19-2.655,2.654v9.812c0,1.464,1.191,2.654,2.655,2.654h12.926c1.464,0,2.654-1.19,2.654-2.654v-9.812
				c0-1.464-1.19-2.654-2.654-2.654H9.538z"/>
		</g>
		<g opacity="0.4">
			<path d="M22.287,14.267c-0.621,0-1.125-0.504-1.125-1.125V7.775c0-2.847-2.315-5.162-5.161-5.162
				c-2.847,0-5.162,2.315-5.162,5.162v5.366c0,0.621-0.504,1.125-1.125,1.125s-1.125-0.504-1.125-1.125V7.775
				c0-4.087,3.325-7.412,7.412-7.412s7.411,3.325,7.411,7.412v5.366C23.412,13.763,22.908,14.267,22.287,14.267z"/>
		</g>
		<g opacity="0.4">
			<path d="M16,24.873c-0.621,0-1.125-0.504-1.125-1.125v-3.956c0-0.621,0.504-1.125,1.125-1.125s1.125,0.504,1.125,1.125v3.956
				C17.125,24.369,16.622,24.873,16,24.873z"/>
		</g>
	</g>
</g>
<g id="Layer_2">
</g>
</svg>
