<?xml version="1.0" encoding="utf-8"?>
<!-- Generator: Adobe Illustrator 26.3.1, SVG Export Plug-In . SVG Version: 6.00 Build 0)  -->
<svg version="1.1" xmlns="http://www.w3.org/2000/svg" xmlns:xlink="http://www.w3.org/1999/xlink" x="0px" y="0px"
	 viewBox="0 0 32 32" enable-background="new 0 0 32 32" xml:space="preserve">
<g id="Layer_1">
	<g>
		<g>
			<path d="M29.911,20.936c-0.621,0-1.125-0.504-1.125-1.125V3.214H12.19c-0.621,0-1.125-0.504-1.125-1.125s0.504-1.125,1.125-1.125
				h17.722c0.621,0,1.125,0.504,1.125,1.125v17.723C31.036,20.432,30.533,20.936,29.911,20.936z"/>
		</g>
		<g opacity="0.4">
			<path d="M2.088,31.037c-0.288,0-0.576-0.109-0.796-0.329c-0.438-0.439-0.438-1.152,0-1.592L29.116,1.293
				c0.439-0.439,1.152-0.439,1.592,0c0.438,0.439,0.438,1.152,0,1.592L2.884,30.708C2.664,30.927,2.376,31.037,2.088,31.037z"/>
		</g>
	</g>
</g>
<g id="Layer_2">
</g>
</svg>
