<?xml version="1.0" encoding="utf-8"?>
<!-- Generator: Adobe Illustrator 26.3.1, SVG Export Plug-In . SVG Version: 6.00 Build 0)  -->
<svg version="1.1" xmlns="http://www.w3.org/2000/svg" xmlns:xlink="http://www.w3.org/1999/xlink" x="0px" y="0px"
	 viewBox="0 0 32 32" enable-background="new 0 0 32 32" xml:space="preserve">
<g id="Layer_1">
	<g>
		<g opacity="0.4">
			<g>
				<path d="M15.589,17.457c-4.712,0-8.546-3.834-8.546-8.546s3.834-8.546,8.546-8.546s8.546,3.834,8.546,8.546
					S20.301,17.457,15.589,17.457z M15.589,2.615c-3.472,0-6.296,2.824-6.296,6.296s2.824,6.296,6.296,6.296
					s6.296-2.824,6.296-6.296S19.06,2.615,15.589,2.615z"/>
			</g>
			<g>
				<path d="M15.588,31.619H2.769c-0.678,0-1.327-0.288-1.783-0.792c-0.455-0.502-0.679-1.176-0.611-1.849
					c0.772-7.851,7.313-13.771,15.214-13.771c0.621,0,1.125,0.504,1.125,1.125s-0.504,1.125-1.125,1.125
					c-6.738,0-12.316,5.048-12.976,11.742c-0.005,0.055,0.02,0.094,0.04,0.117c0.022,0.024,0.06,0.053,0.116,0.053h12.818
					c0.621,0,1.125,0.504,1.125,1.125S16.209,31.619,15.588,31.619z"/>
			</g>
		</g>
		<g>
			<path d="M25.117,29.048c-2.628,0-4.767-2.139-4.767-4.767s2.139-4.766,4.768-4.766c2.628,0,4.766,2.138,4.766,4.766
				S27.745,29.048,25.117,29.048z M25.118,21.766c-1.389,0-2.518,1.129-2.518,2.516c0,1.388,1.129,2.517,2.517,2.517
				s2.517-1.129,2.517-2.517C27.634,22.895,26.505,21.766,25.118,21.766z"/>
		</g>
		<g>
			<path d="M25.118,21.766c-0.621,0-1.125-0.504-1.125-1.125v-2.588c0-0.621,0.504-1.125,1.125-1.125s1.125,0.504,1.125,1.125v2.588
				C26.243,21.262,25.739,21.766,25.118,21.766z"/>
		</g>
		<g>
			<path d="M21.963,23.586c-0.191,0-0.385-0.049-0.562-0.15l-2.24-1.294c-0.538-0.312-0.723-0.999-0.412-1.537
				c0.312-0.539,1.003-0.719,1.537-0.412l2.24,1.294c0.538,0.312,0.723,0.999,0.412,1.537
				C22.729,23.385,22.351,23.586,21.963,23.586z"/>
		</g>
		<g>
			<path d="M19.723,28.521c-0.389,0-0.767-0.201-0.976-0.562c-0.311-0.538-0.126-1.227,0.412-1.537l2.241-1.294
				c0.538-0.309,1.227-0.126,1.537,0.412s0.126,1.227-0.412,1.537l-2.241,1.294C20.108,28.472,19.914,28.521,19.723,28.521z"/>
		</g>
		<g>
			<path d="M25.117,31.635c-0.621,0-1.125-0.504-1.125-1.125v-2.587c0-0.621,0.504-1.125,1.125-1.125s1.125,0.504,1.125,1.125v2.587
				C26.242,31.131,25.738,31.635,25.117,31.635z"/>
		</g>
		<g>
			<path d="M30.511,28.521c-0.19,0-0.384-0.049-0.562-0.15l-2.24-1.293c-0.538-0.311-0.723-0.999-0.412-1.537
				c0.312-0.536,0.999-0.721,1.537-0.412l2.24,1.293c0.538,0.311,0.723,0.999,0.412,1.537
				C31.277,28.319,30.899,28.521,30.511,28.521z"/>
		</g>
		<g>
			<path d="M28.272,23.586c-0.389,0-0.767-0.201-0.976-0.562c-0.311-0.538-0.126-1.227,0.412-1.537l2.24-1.293
				c0.54-0.31,1.226-0.126,1.537,0.412c0.311,0.538,0.126,1.227-0.412,1.537l-2.24,1.293C28.656,23.538,28.463,23.586,28.272,23.586
				z"/>
		</g>
	</g>
</g>
<g id="Layer_2">
</g>
</svg>
