<?xml version="1.0" encoding="utf-8"?>
<!-- Generator: Adobe Illustrator 26.3.1, SVG Export Plug-In . SVG Version: 6.00 Build 0)  -->
<svg version="1.1" xmlns="http://www.w3.org/2000/svg" xmlns:xlink="http://www.w3.org/1999/xlink" x="0px" y="0px"
	 viewBox="0 0 32 32" enable-background="new 0 0 32 32" xml:space="preserve">
<g id="Layer_1">
	<g>
		<g>
			<path d="M26.658,31.632H5.342c-2.746,0-4.979-2.233-4.979-4.979V14.572c0-2.746,2.233-4.979,4.979-4.979h21.315
				c2.746,0,4.979,2.233,4.979,4.979v12.081C31.637,29.398,29.404,31.632,26.658,31.632z M5.342,11.843
				c-1.505,0-2.729,1.225-2.729,2.729v12.081c0,1.505,1.225,2.729,2.729,2.729h21.315c1.505,0,2.729-1.224,2.729-2.729V14.572
				c0-1.505-1.225-2.729-2.729-2.729H5.342z"/>
		</g>
		<g>
			<path d="M30.512,18.603c-0.621,0-1.125-0.504-1.125-1.125V9.63c0-1.869-1.225-3.391-2.729-3.391h-2.176
				c-0.621,0-1.125-0.504-1.125-1.125s0.504-1.125,1.125-1.125h2.176c2.746,0,4.979,2.53,4.979,5.641v7.848
				C31.637,18.099,31.133,18.603,30.512,18.603z"/>
		</g>
		<g>
			<path d="M1.488,18.603c-0.621,0-1.125-0.504-1.125-1.125V9.63c0-3.11,2.233-5.641,4.979-5.641h6.521
				c0.621,0,1.125,0.504,1.125,1.125s-0.504,1.125-1.125,1.125H5.342c-1.505,0-2.729,1.521-2.729,3.391v7.848
				C2.613,18.099,2.109,18.603,1.488,18.603z"/>
		</g>
		<g>
			<path d="M26.942,11.791c-0.391,0-0.771-0.203-0.978-0.567l-4.017-7.03c-0.844-1.495-2.752-2.025-4.264-1.184L3.722,11.574
				c-0.531,0.324-1.223,0.159-1.547-0.371C1.85,10.674,2.016,9.981,2.546,9.656l14.002-8.588c2.63-1.466,5.91-0.553,7.356,2.016
				l4.013,7.024c0.309,0.539,0.121,1.227-0.419,1.534C27.323,11.743,27.131,11.791,26.942,11.791z"/>
		</g>
		<g opacity="0.4">
			<path d="M3.134,11.416c0,0,5.757-0.802,9.204-0.75c3.447,0.052,12.891-0.225,14.32,0.052c1.429,0.277,3.854,0.948,3.854,3.854
				s0.26,9.662,0,12.081s-0.949,3.854-3.854,3.854s-18.479,0-21.316,0s-3.854-2.148-3.854-3.854s0-10.804,0-12.612
				S3.134,11.416,3.134,11.416z"/>
		</g>
		<g opacity="0.4">
			<path d="M23.922,5.382l2.719,4.759c0,0,2.325,0.935,2.666,1.664c0.341,0.729,1.204-2.175,1.204-2.175s-0.905-3.752-3.295-4.248
				S23.922,5.382,23.922,5.382z"/>
		</g>
		<g opacity="0.4">
			<polygon points="3.719,5.534 10.511,4.961 6.969,8.542 1.488,10.349 			"/>
		</g>
	</g>
</g>
<g id="Layer_2">
</g>
</svg>
