<svg xmlns="http://www.w3.org/2000/svg" viewBox="0 0 434.75 300"><g id="Layer_2" data-name="Layer 2"><g id="Layer_4" data-name="Layer 4"><path d="M302.94,300a11.67,11.67,0,0,1-11.67-11.67c0-65.47,22.35-117.21,42.51-150.57,15.8-26.12,34.18-11.43,19.23,13.78-18.25,30.79-38.4,78.07-38.4,136.79A11.68,11.68,0,0,1,302.94,300Z" style="fill:#54a3e3"/><path d="M302.94,300a11.67,11.67,0,0,1-11.67-11.67c0-56.41-18.22-102.27-35.52-133.1C240.27,127.65,258.7,113,275,141.3c19.21,33.41,39.66,83.83,39.66,147A11.68,11.68,0,0,1,302.94,300Z" style="fill:#54a3e3"/><path d="M373,41.19c-.67,0-1.33,0-2,.05a71.08,71.08,0,0,1-53,90,61.78,61.78,0,1,0,54.94-90Z" style="fill:#94df3f"/><path d="M231.88,61.78a70.78,70.78,0,0,1,3-20.54c-.67,0-1.33-.05-2-.05a61.79,61.79,0,1,0,54.94,90A71.09,71.09,0,0,1,231.88,61.78Z" style="fill:#94df3f"/><circle cx="302.94" cy="61.78" r="61.78" style="fill:#94df3f"/><path d="M129,130.11H18a18,18,0,0,1,0-36H129a18,18,0,0,1,0,36Z" style="fill:#fff"/><path d="M168,201.11H18a18,18,0,0,1,0-36H168a18,18,0,0,1,0,36Z" style="fill:#fff"/><path d="M242,273.11H18a18,18,0,0,1,0-36H242a18,18,0,0,1,0,36Z" style="fill:#fff"/></g></g></svg>