<svg xmlns="http://www.w3.org/2000/svg" viewBox="0 0 439 299.89"><defs><style>.cls-1{fill:#54a3e3;}.cls-2{fill:#79d70f;}.cls-3{fill:#94df3f;}.cls-4{fill:#fff;}</style></defs><g id="Layer_2" data-name="Layer 2"><g id="Layer_4" data-name="Layer 4"><path class="cls-1" d="M306.5,299.89a11.66,11.66,0,0,1-11.67-11.67c0-116.73,71.06-189.82,74.09-192.88a11.67,11.67,0,1,1,16.58,16.43c-.66.67-67.33,69.64-67.33,176.45A11.66,11.66,0,0,1,306.5,299.89Z"/><path class="cls-1" d="M306.5,299.89a11.66,11.66,0,0,1-11.67-11.67c0-106.87-65.39-175.86-66-176.55a11.67,11.67,0,0,1,16.76-16.25c3,3.06,72.63,76.14,72.63,192.8A11.66,11.66,0,0,1,306.5,299.89Z"/><circle class="cls-2" cx="236" cy="103" r="62"/><circle class="cls-2" cx="377" cy="103" r="62"/><circle class="cls-3" cx="307" cy="62" r="62"/><rect class="cls-4" y="85" width="147" height="36" rx="18"/><rect class="cls-4" y="156" width="186" height="36" rx="18"/><rect class="cls-4" y="228" width="260" height="36" rx="18"/></g></g></svg>