<?xml version="1.0" encoding="utf-8"?>
<!-- Generator: Adobe Illustrator 26.3.1, SVG Export Plug-In . SVG Version: 6.00 Build 0)  -->
<svg version="1.1" xmlns="http://www.w3.org/2000/svg" xmlns:xlink="http://www.w3.org/1999/xlink" x="0px" y="0px"
	 viewBox="0 0 32 32" enable-background="new 0 0 32 32" xml:space="preserve">
<g id="Layer_1">
	<g>
		<g opacity="0.4">
			<path fill="#5D6BC1" d="M26.465,30.512H5.535c-2.235,0-4.047-1.812-4.047-4.047V5.999c0-2.235,1.812-4.047,4.047-4.047h20.931
				c2.235,0,4.047,1.812,4.047,4.047v20.466C30.512,28.7,28.7,30.512,26.465,30.512z"/>
		</g>
		<g>
			<path fill="#5D6BC1" d="M26.414,31.637H5.586c-2.88,0-5.224-2.344-5.224-5.224V5.586c0-2.88,2.344-5.223,5.224-5.223h20.827
				c2.88,0,5.224,2.343,5.224,5.223v20.827C31.637,29.293,29.293,31.637,26.414,31.637z M5.586,2.613
				c-1.64,0-2.974,1.334-2.974,2.973v20.827c0,1.64,1.334,2.974,2.974,2.974h20.827c1.64,0,2.974-1.334,2.974-2.974V5.586
				c0-1.639-1.334-2.973-2.974-2.973H5.586z"/>
		</g>
		<g>
			<path fill="#5D6BC1" d="M24.855,10.71H5.506c-0.621,0-1.125-0.504-1.125-1.125S4.885,8.46,5.506,8.46h19.349
				c0.621,0,1.125,0.504,1.125,1.125S25.476,10.71,24.855,10.71z"/>
		</g>
		<g>
			<path fill="#5D6BC1" d="M22.011,14.55c-0.288,0-0.576-0.11-0.796-0.33c-0.439-0.439-0.438-1.151,0.001-1.591l3.047-3.044
				l-3.049-3.049c-0.438-0.439-0.438-1.152,0-1.592c0.439-0.439,1.152-0.439,1.592,0l3.845,3.845
				c0.211,0.212,0.329,0.498,0.329,0.796c0,0.299-0.119,0.585-0.33,0.796l-3.844,3.84C22.586,14.44,22.299,14.55,22.011,14.55z"/>
		</g>
		<g>
			<path fill="#5D6BC1" d="M26.494,23.542h-19.3c-0.621,0-1.125-0.504-1.125-1.125s0.504-1.125,1.125-1.125h19.3
				c0.621,0,1.125,0.504,1.125,1.125S27.115,23.542,26.494,23.542z"/>
		</g>
		<g>
			<path fill="#5D6BC1" d="M9.99,27.384c-0.288,0-0.576-0.109-0.796-0.329L5.349,23.21c-0.211-0.212-0.329-0.498-0.329-0.796
				c0-0.299,0.119-0.585,0.33-0.796l3.844-3.84c0.439-0.439,1.151-0.438,1.591,0.001s0.438,1.151-0.001,1.591l-3.047,3.044
				l3.049,3.049c0.438,0.439,0.438,1.152,0,1.592C10.566,27.274,10.278,27.384,9.99,27.384z"/>
		</g>
	</g>
</g>
<g id="Layer_2">
</g>
</svg>
