<?xml version="1.0" encoding="utf-8"?>
<!-- Generator: Adobe Illustrator 26.3.1, SVG Export Plug-In . SVG Version: 6.00 Build 0)  -->
<svg version="1.1" xmlns="http://www.w3.org/2000/svg" xmlns:xlink="http://www.w3.org/1999/xlink" x="0px" y="0px"
	 viewBox="0 0 32 32" enable-background="new 0 0 32 32" xml:space="preserve">
<g id="Layer_1">
	<g>
		<g>
			<path fill="#5D6BC1" d="M26.658,31.632H5.342c-2.746,0-4.979-2.233-4.979-4.979V14.573c0-2.745,2.233-4.979,4.979-4.979h21.315
				c2.746,0,4.979,2.233,4.979,4.979v12.081C31.637,29.399,29.404,31.632,26.658,31.632z M5.342,11.844
				c-1.505,0-2.729,1.224-2.729,2.729v12.081c0,1.505,1.225,2.729,2.729,2.729h21.315c1.505,0,2.729-1.224,2.729-2.729V14.573
				c0-1.505-1.225-2.729-2.729-2.729H5.342z"/>
		</g>
		<g>
			<path fill="#5D6BC1" d="M30.512,18.604c-0.621,0-1.125-0.504-1.125-1.125V9.63c0-1.869-1.225-3.39-2.729-3.39h-2.176
				c-0.621,0-1.125-0.504-1.125-1.125s0.504-1.125,1.125-1.125h2.176c2.746,0,4.979,2.53,4.979,5.64v7.849
				C31.637,18.1,31.133,18.604,30.512,18.604z"/>
		</g>
		<g>
			<path fill="#5D6BC1" d="M1.488,18.604c-0.621,0-1.125-0.504-1.125-1.125V9.63c0-3.109,2.233-5.64,4.979-5.64h6.521
				c0.621,0,1.125,0.504,1.125,1.125s-0.504,1.125-1.125,1.125H5.342c-1.505,0-2.729,1.521-2.729,3.39v7.849
				C2.613,18.1,2.109,18.604,1.488,18.604z"/>
		</g>
		<g>
			<path fill="#5D6BC1" d="M26.942,11.791c-0.391,0-0.771-0.203-0.978-0.566l-4.017-7.029c-0.846-1.5-2.757-2.027-4.264-1.186
				L3.722,11.576C3.191,11.9,2.5,11.735,2.175,11.204C1.85,10.675,2.016,9.983,2.546,9.658l14.002-8.589
				c2.625-1.468,5.909-0.552,7.356,2.017l4.013,7.022c0.309,0.54,0.121,1.228-0.418,1.535
				C27.323,11.743,27.131,11.791,26.942,11.791z"/>
		</g>
	</g>
</g>
<g id="Layer_2">
</g>
</svg>
