<?xml version="1.0" encoding="utf-8"?>
<!-- Generator: Adobe Illustrator 26.3.1, SVG Export Plug-In . SVG Version: 6.00 Build 0)  -->
<svg version="1.1" xmlns="http://www.w3.org/2000/svg" xmlns:xlink="http://www.w3.org/1999/xlink" x="0px" y="0px"
	 viewBox="0 0 32 32" enable-background="new 0 0 32 32" xml:space="preserve">
<g id="Layer_1">
	<g>
		<g opacity="0.4">
			<path fill="#FFFFFF" d="M16,31.635c-0.182,0-0.363-0.044-0.528-0.132l-5.431-2.89c-4.748-2.531-7.696-7.448-7.696-12.833v-8.84
				c0-0.448,0.266-0.853,0.677-1.031l12.53-5.45c0.285-0.126,0.61-0.125,0.897,0l12.529,5.45c0.41,0.179,0.676,0.583,0.676,1.031
				v8.84c0,5.385-2.948,10.302-7.695,12.833l-5.431,2.89C16.364,31.591,16.182,31.635,16,31.635z M4.595,7.678v8.103
				c0,4.552,2.492,8.708,6.504,10.847L16,29.236l4.901-2.608c4.011-2.139,6.503-6.295,6.503-10.847V7.678L16,2.717L4.595,7.678z"/>
		</g>
		<g>
			<path fill="#FFFFFF" d="M12.344,14.936c-0.621,0-1.125-0.504-1.125-1.125v-0.413c0-0.621,0.504-1.125,1.125-1.125
				s1.125,0.504,1.125,1.125v0.413C13.469,14.432,12.965,14.936,12.344,14.936z"/>
		</g>
		<g>
			<path fill="#FFFFFF" d="M18.596,20.779h-6.253c-0.299,0-0.585-0.118-0.796-0.329c-0.211-0.212-0.329-0.498-0.329-0.796
				l0.001-5.843c0-0.621,0.504-1.125,1.125-1.125l0,0c0.621,0,1.125,0.504,1.125,1.125l-0.001,4.718h5.128
				c0.621,0,1.125,0.504,1.125,1.125S19.217,20.779,18.596,20.779z"/>
		</g>
		<g>
			<path fill="#FFFFFF" d="M12.344,20.779c-0.288,0-0.576-0.109-0.796-0.329c-0.438-0.439-0.438-1.152,0-1.592l7.311-7.311
				c0.439-0.439,1.152-0.439,1.592,0c0.438,0.439,0.438,1.152,0,1.592L13.14,20.45C12.92,20.67,12.632,20.779,12.344,20.779z"/>
		</g>
	</g>
</g>
<g id="Layer_2">
</g>
</svg>
