<svg width="14" height="14" viewBox="0 0 14 14" fill="none" xmlns="http://www.w3.org/2000/svg">
<path d="M13.7072 1.70701C14.0977 1.31644 14.0976 0.683273 13.707 0.2928C13.3164 -0.0976727 12.6833 -0.0975895 12.2928 0.292986L13.7072 1.70701ZM0 13.0033C7.25985e-05 13.5556 0.447847 14.0032 1.00013 14.0032L10.0001 14.002C10.5524 14.0019 11.0001 13.5541 11 13.0018C10.9999 12.4496 10.5522 12.0019 9.99987 12.002L1.99987 12.003L1.99882 4.00302C1.99874 3.45074 1.55097 3.00308 0.998686 3.00315C0.446401 3.00323 -0.00125551 3.451 -0.00118291 4.00329L0 13.0033ZM12.2928 0.292986L0.2928 12.2961L1.7072 13.7102L13.7072 1.70701L12.2928 0.292986Z" fill="white"/>
</svg>
