<svg width="14" height="14" viewBox="0 0 14 14" fill="none" xmlns="http://www.w3.org/2000/svg">
<path d="M0.2928 12.2961C-0.0976727 12.6867 -0.0975895 13.3199 0.292986 13.7104C0.683562 14.1008 1.31673 14.1007 1.7072 13.7102L0.2928 12.2961ZM14 0.999869C13.9999 0.447584 13.5522 -7.25985e-05 12.9999 0L3.99987 0.00118279C3.44758 0.00125533 2.99993 0.449029 3 1.00131C3.00007 1.5536 3.44785 2.00126 4.00013 2.00118L12.0001 2.00013L12.0012 10.0001C12.0013 10.5524 12.449 11.0001 13.0013 11C13.5536 10.9999 14.0013 10.5522 14.0012 9.99987L14 0.999869ZM1.7072 13.7102L13.7072 1.70701L12.2928 0.292986L0.2928 12.2961L1.7072 13.7102Z" fill="white"/>
</svg>
