<svg width="24" height="24" viewBox="0 0 24 24" fill="none" xmlns="http://www.w3.org/2000/svg">
<path d="M7.16214 10.768C7.48284 10.4741 8 10.7016 8 11.1366V13H13.5C13.7761 13 14 13.2239 14 13.5V17.5C14 17.7761 13.7761 18 13.5 18H8V19.8634C8 20.2984 7.48284 20.5259 7.16214 20.232L2.40208 15.8686C2.1859 15.6704 2.1859 15.3296 2.40208 15.1314L7.16214 10.768ZM21.5979 8.86858C21.8141 8.67041 21.8141 8.32959 21.5979 8.13142L16.8379 3.76804C16.5172 3.47407 16 3.70157 16 4.13662V6H10.5C10.2239 6 10 6.22386 10 6.5V10.5C10 10.7761 10.2239 11 10.5 11H16V12.8634C16 13.2984 16.5172 13.5259 16.8379 13.232L21.5979 8.86858Z" fill="white"/>
</svg>
