<?xml version="1.0" encoding="utf-8"?>
<!-- Generator: Adobe Illustrator 26.3.1, SVG Export Plug-In . SVG Version: 6.00 Build 0)  -->
<svg version="1.1" xmlns="http://www.w3.org/2000/svg" xmlns:xlink="http://www.w3.org/1999/xlink" x="0px" y="0px"
	 viewBox="0 0 32 32" enable-background="new 0 0 32 32" xml:space="preserve">
<g id="Layer_1">
	<g>
		<g>
			<path fill="#5D6BC1" d="M16,31.637C7.377,31.637,0.363,24.622,0.363,16S7.377,0.363,16,0.363c8.622,0,15.637,7.015,15.637,15.637
				S24.623,31.637,16,31.637z M16,2.613C8.619,2.613,2.613,8.618,2.613,16S8.619,29.387,16,29.387S29.387,23.382,29.387,16
				S23.382,2.613,16,2.613z"/>
		</g>
		<g>
			<path fill="#060606" d="M16.001,20.715c-0.288,0-0.576-0.109-0.796-0.329l-5.552-5.552c-0.438-0.439-0.438-1.152,0-1.592
				c0.439-0.439,1.152-0.439,1.592,0l4.756,4.757l4.753-4.754c0.439-0.439,1.152-0.439,1.592,0c0.438,0.439,0.438,1.152,0,1.592
				l-5.549,5.549C16.578,20.605,16.29,20.715,16.001,20.715z"/>
		</g>
	</g>
</g>
<g id="Layer_2">
</g>
</svg>
