<?xml version="1.0" encoding="utf-8"?>
<!-- Generator: Adobe Illustrator 26.3.1, SVG Export Plug-In . SVG Version: 6.00 Build 0)  -->
<svg version="1.1" xmlns="http://www.w3.org/2000/svg" xmlns:xlink="http://www.w3.org/1999/xlink" x="0px" y="0px"
	 viewBox="0 0 32 32" enable-background="new 0 0 32 32" xml:space="preserve">
<g id="Layer_1">
	<g>
		<g>
			<path fill="#5D6BC1" d="M16,31.637C7.378,31.637,0.363,24.622,0.363,16S7.378,0.363,16,0.363S31.637,7.378,31.637,16
				S24.622,31.637,16,31.637z M16,2.613C8.618,2.613,2.613,8.618,2.613,16S8.618,29.387,16,29.387S29.387,23.382,29.387,16
				S23.382,2.613,16,2.613z"/>
		</g>
		<g>
			<path fill="#231F20" d="M21.412,22.537c-0.288,0-0.576-0.109-0.796-0.329L9.792,11.384c-0.438-0.439-0.438-1.152,0-1.592
				c0.439-0.439,1.152-0.439,1.592,0l10.824,10.824c0.438,0.439,0.438,1.152,0,1.592C21.988,22.428,21.7,22.537,21.412,22.537z"/>
		</g>
		<g>
			<path fill="#231F20" d="M10.588,22.537c-0.288,0-0.576-0.109-0.796-0.329c-0.438-0.439-0.438-1.152,0-1.592L20.616,9.792
				c0.439-0.439,1.152-0.439,1.592,0c0.438,0.439,0.438,1.152,0,1.592L11.384,22.208C11.164,22.428,10.876,22.537,10.588,22.537z"/>
		</g>
	</g>
</g>
<g id="Layer_2">
</g>
</svg>
