<?xml version="1.0" encoding="utf-8"?>
<!-- Generator: Adobe Illustrator 26.3.1, SVG Export Plug-In . SVG Version: 6.00 Build 0)  -->
<svg version="1.1" xmlns="http://www.w3.org/2000/svg" xmlns:xlink="http://www.w3.org/1999/xlink" x="0px" y="0px"
	 viewBox="0 0 32 32" enable-background="new 0 0 32 32" xml:space="preserve">
<g id="Layer_1">
	<g>
		<path fill="#231F20" d="M1.488,11.112c-0.621,0-1.125-0.504-1.125-1.125V5.571c0-2.872,2.336-5.208,5.208-5.208h4.417
			c0.621,0,1.125,0.504,1.125,1.125s-0.504,1.125-1.125,1.125H5.571c-1.631,0-2.958,1.327-2.958,2.958v4.416
			C2.613,10.608,2.109,11.112,1.488,11.112z"/>
	</g>
	<g>
		<path fill="#231F20" d="M30.512,11.112c-0.621,0-1.125-0.504-1.125-1.125V5.571c0-1.631-1.327-2.958-2.958-2.958h-4.416
			c-0.621,0-1.125-0.504-1.125-1.125s0.504-1.125,1.125-1.125h4.416c2.872,0,5.208,2.336,5.208,5.208v4.416
			C31.637,10.608,31.133,11.112,30.512,11.112z"/>
	</g>
	<g>
		<path fill="#231F20" d="M26.429,31.637h-4.416c-0.621,0-1.125-0.504-1.125-1.125s0.504-1.125,1.125-1.125h4.416
			c1.631,0,2.958-1.326,2.958-2.957v-4.417c0-0.621,0.504-1.125,1.125-1.125s1.125,0.504,1.125,1.125v4.417
			C31.637,29.301,29.301,31.637,26.429,31.637z"/>
	</g>
	<g>
		<path fill="#231F20" d="M9.988,31.637H5.571c-2.871,0-5.207-2.336-5.207-5.207l-0.001-4.417c0-0.621,0.504-1.125,1.125-1.125
			s1.125,0.504,1.125,1.125l0.001,4.417c0,1.631,1.326,2.957,2.957,2.957h4.417c0.621,0,1.125,0.504,1.125,1.125
			S10.609,31.637,9.988,31.637z"/>
	</g>
	<g>
		<path fill="#5D6BC1" d="M25.123,14.205h-6.13c-0.621,0-1.125-0.504-1.125-1.125V6.949c0-0.621,0.504-1.125,1.125-1.125h6.13
			c0.621,0,1.125,0.504,1.125,1.125v6.131C26.248,13.701,25.744,14.205,25.123,14.205z M20.118,11.955h3.88V8.074h-3.88V11.955z"/>
	</g>
	<g>
		<path fill="#5D6BC1" d="M25.113,26.101h-6.131c-0.621,0-1.125-0.504-1.125-1.125v-6.131c0-0.621,0.504-1.125,1.125-1.125h6.131
			c0.621,0,1.125,0.504,1.125,1.125v6.131C26.238,25.597,25.734,26.101,25.113,26.101z M20.107,23.851h3.881V19.97h-3.881V23.851z"
			/>
	</g>
	<g>
		<path fill="#5D6BC1" d="M12.926,14.205H6.795c-0.621,0-1.125-0.504-1.125-1.125V6.949c0-0.621,0.504-1.125,1.125-1.125h6.131
			c0.621,0,1.125,0.504,1.125,1.125v6.131C14.051,13.701,13.547,14.205,12.926,14.205z M7.92,11.955h3.881V8.074H7.92V11.955z"/>
	</g>
	<g>
		<path fill="#231F20" d="M12.926,26.101H11.04c-0.621,0-1.125-0.504-1.125-1.125v-1.888c0-0.621,0.504-1.125,1.125-1.125h1.887
			c0.621,0,1.125,0.504,1.125,1.125v1.888C14.051,25.597,13.547,26.101,12.926,26.101z"/>
	</g>
	<g>
		<path fill="#231F20" d="M8.683,21.857H6.795c-0.621,0-1.125-0.504-1.125-1.125v-1.888c0-0.621,0.504-1.125,1.125-1.125h1.888
			c0.621,0,1.125,0.504,1.125,1.125v1.888C9.808,21.354,9.304,21.857,8.683,21.857z"/>
	</g>
</g>
<g id="Layer_2">
</g>
</svg>
