<svg width="24" height="24" viewBox="0 0 24 24" fill="none" xmlns="http://www.w3.org/2000/svg">
<path d="M9 9C9 5.68629 11.6863 3 15 3C18.3137 3 21 5.68629 21 9C21 11.2208 19.7934 12.9626 18 14" stroke="#333333" stroke-width="2" stroke-linecap="round" stroke-linejoin="round"/>
<path d="M8.30379 7.5C7.77702 7.18259 7.15983 7 6.5 7C4.567 7 3 8.567 3 10.5C3 12.433 4.567 14 6.5 14H18" stroke="#333333" stroke-width="2" stroke-linecap="round" stroke-linejoin="round"/>
<line x1="18" y1="17" x2="18" y2="18" stroke="#333333" stroke-width="2" stroke-linecap="round" stroke-linejoin="round"/>
<line x1="15" y1="20" x2="15" y2="21" stroke="#333333" stroke-width="2" stroke-linecap="round" stroke-linejoin="round"/>
<line x1="15" y1="14" x2="15" y2="15" stroke="#333333" stroke-width="2" stroke-linecap="round" stroke-linejoin="round"/>
<line x1="12" y1="17" x2="12" y2="18" stroke="#333333" stroke-width="2" stroke-linecap="round" stroke-linejoin="round"/>
<line x1="9" y1="20" x2="9" y2="21" stroke="#333333" stroke-width="2" stroke-linecap="round" stroke-linejoin="round"/>
<line x1="9" y1="14" x2="9" y2="15" stroke="#333333" stroke-width="2" stroke-linecap="round" stroke-linejoin="round"/>
<line x1="6" y1="17" x2="6" y2="18" stroke="#333333" stroke-width="2" stroke-linecap="round" stroke-linejoin="round"/>
</svg>
