<?xml version="1.0" encoding="UTF-8" standalone="no"?>
<!-- Generator: Adobe Illustrator 26.3.1, SVG Export Plug-In . SVG Version: 6.00 Build 0)  -->

<svg
   version="1.1"
   x="0px"
   y="0px"
   viewBox="0 0 32 32"
   enable-background="new 0 0 32 32"
   xml:space="preserve"
   id="svg12"
   sodipodi:docname="transaction-none.svg"
   inkscape:version="1.2.1 (9c6d41e410, 2022-07-14)"
   xmlns:inkscape="http://www.inkscape.org/namespaces/inkscape"
   xmlns:sodipodi="http://sodipodi.sourceforge.net/DTD/sodipodi-0.dtd"
   xmlns="http://www.w3.org/2000/svg"
   xmlns:svg="http://www.w3.org/2000/svg"><defs
   id="defs16" /><sodipodi:namedview
   id="namedview14"
   pagecolor="#505050"
   bordercolor="#ffffff"
   borderopacity="1"
   inkscape:showpageshadow="0"
   inkscape:pageopacity="0"
   inkscape:pagecheckerboard="1"
   inkscape:deskcolor="#505050"
   showgrid="false"
   inkscape:zoom="13.078125"
   inkscape:cx="10.054958"
   inkscape:cy="11.928315"
   inkscape:window-width="3840"
   inkscape:window-height="1017"
   inkscape:window-x="3232"
   inkscape:window-y="1432"
   inkscape:window-maximized="1"
   inkscape:current-layer="Layer_1" />
<g
   id="Layer_1"
   transform="translate(-0.72640382,-1.1851852)">
	<g
   id="g4"
   transform="translate(6.3464755,-10.322581)">
		<path
   id="path2"
   d="m 3.1385132,11.788701 c 0.02965,0.23877 0.054119,0.477165 0.076172,0.716797 v -0.31836 c 0,-0.140896 -0.028802,-0.274106 -0.076172,-0.398437 z m 0.1132812,16.998047 c -0.00575,0.0032 -0.013581,0.0059 -0.023437,0.0059 H 2.8885132 2.4744507 l -0.3826889,-0.0048 -0.1904914,0.03345 -0.1726638,0.03823 -0.1937747,0.08124 -0.1573304,0.114695 -0.1319398,0.114696 -0.1597408,0.224612 -0.1326469,0.281959 c 0.1018923,-0.256995 0.005183,0.187286 0.009558,0.235031 0.0271937,0.296747 0.1190801,0.583922 0.3300781,0.794922 0.210998,0.21099 0.4959248,0.330078 0.7949218,0.330078 H 19.810388 c 0.621,0 1.125,-0.50401 1.125,-1.125 0,-0.621 -0.504,-1.125 -1.125,-1.125 z"
   sodipodi:nodetypes="ccsccsccccccccccscssscc" />
	</g>
	
</g>
<g
   id="Layer_2">
</g>
</svg>
